<svg width="49" height="45" viewBox="0 0 49 45" fill="none" xmlns="http://www.w3.org/2000/svg">
<path d="M10 22C10 22 8.5 19 9 17C9.3 15.8 10.3 15.2 12 14C13.6 12.9 14 12.3 15 12C15.7 9.5 16.5 7.5 17 5C17.2624 3.6499 17.5962 2.3147 18 1C21.1022 2.4756 24.1082 4.1456 27 6C29.3 7.5 30.5 8.4 31 10C31.6 12.1 30.5 14.1 30 15C31.733 14.605 33.5522 14.9688 35 16C36.0498 16.6835 36.7728 17.7681 37 19C37.2183 20.4136 36.8578 21.8555 36 23C37.3967 22.9875 38.7735 23.3317 40 24C41.3238 24.613 42.387 25.6762 43 27C43.7 28.9 42.8 31.3 41 33C42.4142 32.7682 43.8613 33.13 45 34C46.5089 35.192 47.2706 37.0962 47 39C46.5 42.5 42.4 43.9 42 44C39.8 44.7 36.7 44.2 31.8 43.6C27.4 43 19.8 43.2 13.8 43.2C8.3 44.3 1 42 1 39C1 36.3 3.3 34.5 4 34C4.6347 33.6062 5.3042 33.2715 6 33C5 31 4 30 4 29C4 27.8 5.1 25.8 7 24C9.1 21.9 10 22 10 22Z" fill="#A57939"/>
<path d="M18 1C21.1022 2.4756 24.1082 4.1456 27 6C29.3 7.5 30.5 8.4 31 10C31.6 12.1 30.5 14.1 30 15C31.733 14.605 33.5522 14.9688 35 16C36.0498 16.6835 36.7728 17.7681 37 19C37.2183 20.4136 36.8578 21.8555 36 23C37.3967 22.9875 38.7735 23.3317 40 24C41.3238 24.613 42.387 25.6762 43 27C43.7 28.9 42.8 31.3 41 33C42.4142 32.7682 43.8613 33.13 45 34C46.5089 35.192 47.2706 37.0962 47 39C46.5 42.5 42.4 43.9 42 44C39.8 44.7 27.2 42.8 32 42C38 41 39.9 39.3 40 39C41 37 38 35 36 35C36.2 31.7 35.3 29.2 30 28C30.7 24.8 29.8 19.9 26 19C28 15 26.4 11.8 25 9C23 5 22 3 18 1Z" fill="#6A462F"/>
<path d="M14.1998 34.3C16.906 34.3 19.0998 31.2108 19.0998 27.4C19.0998 23.5892 16.906 20.5 14.1998 20.5C11.4936 20.5 9.2998 23.5892 9.2998 27.4C9.2998 31.2108 11.4936 34.3 14.1998 34.3Z" fill="white"/>
<path d="M30.6002 33.8C33.3064 33.8 35.5002 30.7108 35.5002 26.9C35.5002 23.0892 33.3064 20 30.6002 20C27.894 20 25.7002 23.0892 25.7002 26.9C25.7002 30.7108 27.894 33.8 30.6002 33.8Z" fill="white"/>
<path d="M37 23C38.5364 23.1434 39.9634 23.8569 41 25C42.3 26.7 43.5 29.5 41 32C38.2331 34.8203 34.7906 36.8858 31 38C25 40 16 43 10 43C4.9 43 1 42 1 38C1 33.6 8.7 33.1 11.2 33M6 33C5.9 32.8 3.4 28.9 5 26C6.3 23.7 9.6 23.1 10 23L6 33ZM30 15C30.3 14.1 31.5 11.6 31 10C30.6 8.7 30.1 7 26 5L18 1C18.1933 1.9907 18.1933 3.0093 18 4C17.8 5.1 17.3 7.3 17 9L30 15ZM41 33C41.6 33.1 45.8 33.5 47 37C48 40 45 44 41 44C36.7 44 33.5 42.8 29.3 42.4L41 33ZM10.6 23.1C10.4 23.1 10.2 23 10 23C9.2836 21.7928 8.936 20.4023 9 19C9.1898 16.4372 10.7074 14.1609 13 13C14.9 12.1 15.7 12.9 18 12C19.5814 11.3825 20.9644 10.3453 22 9L10.6 23.1ZM35.5 23.7C35.699 23.4915 35.8673 23.2558 36 23C36.2 22.8 37.7 20.1 37 18C36 15 31 15.1 30 15C28.6787 16.9795 26.9795 18.6787 25 20C23.1286 21.2946 21.0226 22.2117 18.8 22.7L35.5 23.7ZM18.3 32.7C21.2464 32.3746 24.1185 31.5636 26.8 30.3L18.3 32.7ZM11.2 33H11.9H11.2Z" stroke="black" stroke-width="2" stroke-linecap="round" stroke-linejoin="round"/>
<path d="M17.8998 32.6C17.1515 33.6288 15.9712 34.2558 14.6998 34.3C11.9998 34.3 9.7998 31.2 9.7998 27.4C9.7998 23.6 11.9998 20.5 14.6998 20.5C17.3998 20.5 19.5998 23.6 19.5998 27.4C19.6205 29.2731 19.023 31.1008 17.8998 32.6Z" stroke="black" stroke-width="2.436" stroke-miterlimit="10"/>
<path d="M26.7998 30.3C26.3903 29.2138 26.1868 28.0608 26.1998 26.9C26.1998 23.1 28.3998 20 31.0998 20C33.7998 20 35.9998 23 35.9998 26.9C35.9998 30.8 33.7998 33.8 31.0998 33.8C29.2998 33.8 27.6998 32.4 26.7998 30.3Z" stroke="black" stroke-width="2.436" stroke-miterlimit="10"/>
<path d="M33.1001 27C33.1001 28.1046 32.2047 29 31.1001 29C29.9955 29 29.1001 28.1046 29.1001 27C29.1001 25.8954 29.9955 25 31.1001 25C32.2047 25 33.1001 25.8954 33.1001 27Z" fill="black"/>
<path d="M16.7002 27.3999C16.7002 28.5045 15.8048 29.3999 14.7002 29.3999C13.5956 29.3999 12.7002 28.5045 12.7002 27.3999C12.7002 26.2953 13.5956 25.3999 14.7002 25.3999C15.8048 25.3999 16.7002 26.2953 16.7002 27.3999Z" fill="black"/>
</svg>
