<svg width="85" height="19" viewBox="0 0 85 19" fill="none" xmlns="http://www.w3.org/2000/svg">
<g clip-path="url(#clip0)">
<path d="M64.919 -0.000221718C65.985 0.599778 66.99 1.25978 68.067 1.75778C69.2097 2.28674 70.4068 2.68913 71.637 2.95778C72.6379 3.26685 73.6817 3.41403 74.729 3.39378C75.5344 3.65831 76.3905 3.73091 77.229 3.60578C77.572 3.61778 77.918 3.41478 78.265 3.40578C78.639 3.39878 78.972 3.21378 79.303 3.19178C80.525 3.10978 81.63 2.54478 82.836 2.42178C82.925 2.41278 83.003 2.30078 83.117 2.21178L84.148 2.88978L83.192 3.59678H84.322L84.013 4.31778L84.251 4.70178C84.1341 5.17748 83.9449 5.63244 83.69 6.05078C83.2267 6.57007 82.6987 7.0278 82.119 7.41278C81.8529 7.58932 81.5381 7.67782 81.219 7.66578C80.553 7.63878 79.957 8.06578 79.276 7.92078C79.176 7.89878 79.04 8.04578 78.902 8.12078L78.764 7.73078H74.542C74.9508 7.89411 75.3938 7.95288 75.831 7.90178C76.32 7.91278 76.81 7.90178 77.299 7.90178C77.7439 7.87623 78.1886 7.95321 78.599 8.12678C77.747 8.12678 76.899 8.12678 76.042 8.12678C75.0276 8.2556 73.9973 8.10016 73.066 7.67778C72.0756 7.60743 71.1016 7.3876 70.177 7.02578C69.73 6.90408 69.3237 6.66518 69 6.33378L68.8 6.53978C68.1366 6.13158 67.446 5.76939 66.733 5.45578C66.233 5.26878 66.033 4.71878 65.495 4.61978C65.2602 4.53683 65.0366 4.42533 64.829 4.28778C64.501 4.17978 63.971 4.53378 63.579 4.07778L63.388 4.26878L63.091 4.09978L62.929 4.49978H62.555L62.762 4.15778C62.699 4.12878 62.615 4.05778 62.576 4.07678C62.294 4.21478 62.018 4.36778 61.744 4.52278C61.499 4.66178 61.259 4.80978 60.96 4.98878L60.63 4.77978L60.43 5.20478L60.258 5.04578C60.026 5.23378 59.809 5.55278 59.558 5.58578C58.9235 5.78505 58.3086 6.04212 57.721 6.35378C57.3926 6.49911 57.0971 6.70932 56.852 6.97178C55.9815 7.75924 54.9832 8.39263 53.9 8.84478L53.631 8.59378L53.198 9.03078H52.229L51.816 9.70878H51.416C51.286 9.87278 51.196 10.1088 51.043 10.1588C50.333 10.4028 49.684 10.9038 48.825 10.4328C48.3527 10.2955 47.8453 10.3501 47.413 10.5848L48.771 10.6678L48.765 10.7988H47.256L47.085 10.3138C46.554 10.8228 46.01 10.6258 45.485 10.3958C44.7279 10.0996 44.0152 9.70052 43.367 9.20978C42.5367 8.49259 41.6041 7.90312 40.6 7.46078C40.4781 7.39402 40.362 7.31708 40.253 7.23078H38.93C38.887 7.16478 38.85 7.13078 38.856 7.11278C38.862 7.09478 38.908 7.05978 38.931 7.03078C38.97 6.97978 39.004 6.93078 39.071 6.83078H38.262L38.108 6.37678L37.644 6.29978L37.913 6.68378L37.675 6.94578L38.382 7.08578C36.902 7.32278 35.487 7.91078 33.982 7.66178C33.8763 7.9823 33.6579 8.25357 33.3673 8.42518C33.0767 8.59678 32.7337 8.65705 32.402 8.59478C31.442 9.47878 30.485 10.4048 29.479 11.2748C28.4628 12.2108 27.2342 12.8856 25.899 13.2408C24.771 13.5018 23.577 13.9278 22.391 13.3468C22.2808 13.3201 22.166 13.3184 22.055 13.3418C20.9538 13.3052 19.8799 12.9897 18.934 12.4248C18.521 12.2248 18.2 11.8428 17.792 11.6328C17.2162 11.3705 16.6123 11.1749 15.992 11.0498C14.9021 10.8676 13.7956 10.8045 12.692 10.8618C11.6815 10.8343 10.674 10.9839 9.715 11.3038C9.60632 11.3381 9.48968 11.3381 9.381 11.3038C9.281 11.2688 9.21 11.1678 9.102 11.0748L8.939 11.5598L8.39 11.3508C8.37 11.4268 8.343 11.5278 8.298 11.7008C7.382 11.9628 6.633 12.8418 5.513 12.6638L5.179 12.9978L5.42 13.2668C4.8564 13.6187 4.32737 14.0232 3.84 14.4748C3.38004 15.0411 2.85015 15.5468 2.263 15.9798L1.947 16.6518L1.382 16.9758C1.319 17.6568 1.319 17.6568 0.982 18.0658L0 17.0868V15.1118C0.049 15.0778 0.377 14.9618 0.389 14.8198C0.437 14.2388 1.037 14.0628 1.202 13.5858C1.43517 13.1294 1.75953 12.7257 2.155 12.3998C2.619 11.8828 3.075 11.3568 3.512 10.8168C4.8134 9.38416 6.51189 8.37147 8.391 7.90778C8.83 7.80778 9.241 7.59378 9.675 7.46878C10.085 7.35078 10.535 7.62178 10.957 7.26178C11.131 7.11378 11.538 7.23778 11.579 7.23778L12.285 7.59978L11.938 8.08178H13.319L12.606 7.83278C13.225 7.18378 13.818 6.69178 14.742 7.19578C14.8446 7.23335 14.9543 7.24737 15.063 7.23678C16.421 7.27226 17.7348 7.72628 18.825 8.53678C19.3105 8.90763 19.916 9.08573 20.525 9.03678C21.1032 9.05803 21.6777 9.13743 22.24 9.27378C23.9252 9.30581 25.5718 8.76695 26.912 7.74478C27.6611 7.23875 28.3714 6.67752 29.037 6.06578C30.1767 5.05152 31.5256 4.30043 32.988 3.86578C34.025 3.52078 35.133 3.39578 36.194 3.13678C37.2884 2.99781 38.3908 2.931 39.494 2.93678C40.1426 2.90859 40.7802 3.11087 41.294 3.50778C42.47 4.23678 43.586 5.05978 44.754 5.80078C45.3136 6.10164 45.9304 6.28089 46.564 6.32678C47.6838 6.42468 48.8107 6.24826 49.847 5.81278C50.697 5.51278 51.505 5.08978 52.325 4.71278C53.6769 4.03398 54.9851 3.2715 56.242 2.42978C57.5197 1.55745 58.9645 0.959527 60.485 0.673778C60.9651 0.572923 61.434 0.42487 61.885 0.231778C62.8789 0.00205125 63.9018 -0.0761651 64.919 -0.000221718Z" fill="#F21170"/>
</g>
<defs>
<clipPath id="clip0">
<rect width="84.325" height="18.066" fill="white"/>
</clipPath>
</defs>
</svg>
