<svg width="121" height="121" viewBox="0 0 121 121" fill="none" xmlns="http://www.w3.org/2000/svg">
<rect x="1" y="1" width="119" height="119" rx="59.5" fill="white"/>
<path d="M25.1441 57.5116C25.1442 56.835 25.2777 56.165 25.537 55.5402C25.7962 54.9155 26.1761 54.3481 26.6548 53.8709C27.1335 53.3936 27.7016 53.0157 28.3264 52.759C28.9513 52.5023 29.6206 52.3718 30.2959 52.375L38.8372 52.4029C40.1991 52.4029 41.5051 52.9449 42.4681 53.9097C43.4311 54.8745 43.9721 56.1831 43.9721 57.5475V89.9073C44.9341 89.6217 46.1652 89.317 47.52 88.9974C48.4586 88.7762 49.2951 88.2438 49.8938 87.4866C50.4926 86.7293 50.8185 85.7917 50.8187 84.8256V44.6885C50.8187 43.324 51.3597 42.0153 52.3226 41.0504C53.2856 40.0854 54.5917 39.5432 55.9536 39.5429H64.5208C65.8828 39.5432 67.1888 40.0854 68.1518 41.0504C69.1147 42.0153 69.6557 43.324 69.6557 44.6885V81.9422C69.6557 81.9422 71.799 81.0733 73.8855 80.1904C74.6608 79.8619 75.3224 79.3119 75.7878 78.609C76.2531 77.9062 76.5016 77.0817 76.5023 76.2383V31.8265C76.5023 30.4622 77.0432 29.1538 78.0059 28.1891C78.9687 27.2243 80.2745 26.6821 81.6362 26.6819H90.1944C91.5554 26.6832 92.8602 27.2258 93.8221 28.1905C94.784 29.1551 95.3244 30.4629 95.3244 31.8265V68.398C102.744 63.0107 110.264 56.5308 116.231 48.7395C117.097 47.6085 117.67 46.2804 117.898 44.8737C118.127 43.467 118.005 42.0254 117.543 40.6775C114.781 32.7155 110.39 25.4189 104.651 19.2547C98.9128 13.0904 91.9532 8.19419 84.2177 4.87937C76.4822 1.56454 68.1411 -0.0959081 59.7283 0.00427816C51.3155 0.104464 43.0163 1.96308 35.3616 5.46118C27.7069 8.95928 20.8654 14.0198 15.2748 20.319C9.68426 26.6182 5.46776 34.0173 2.89517 42.0428C0.322569 50.0683 -0.549479 58.5435 0.334822 66.9261C1.21912 75.3086 3.8403 83.4139 8.03062 90.7233C8.76067 91.9842 9.83474 93.0102 11.1266 93.6807C12.4185 94.3513 13.8746 94.6385 15.3238 94.5086C16.9427 94.3658 18.9584 94.164 21.3549 93.8824C22.3979 93.7635 23.3609 93.2644 24.0603 92.4802C24.7598 91.6959 25.1469 90.6814 25.148 89.6296V57.5116" fill="#12161C"/>
<path d="M24.9617 109.408C33.9826 115.983 44.6432 119.93 55.764 120.811C66.8848 121.693 78.0322 119.475 87.973 114.403C97.9137 109.331 106.26 101.603 112.089 92.0735C117.918 82.544 121.002 71.5847 121 60.4081C121 59.0098 120.935 57.6335 120.843 56.2612C98.7487 89.2752 57.9544 104.709 24.9617 109.408" fill="#F0B90B"/>
</svg>
