<svg width="933" height="646" viewBox="0 0 933 646" fill="none" xmlns="http://www.w3.org/2000/svg">
<path d="M260.137 484.447C247.766 496.836 241.917 514.057 244.587 530.225C260.755 532.873 277.967 527.014 290.346 514.648C302.716 502.258 308.565 485.038 305.895 468.87C289.727 466.221 272.516 472.08 260.137 484.447Z" fill="#FCEA2B"/>
<path d="M322.228 475.536C321.476 479.319 319.62 482.796 316.895 485.526C315.567 486.847 314.057 487.97 312.409 488.861C320.879 500.5 327.128 513.476 330.799 527.051C333.577 524.617 336.245 522.043 338.795 519.341C346.29 511.373 352.696 502.352 357.798 492.58C362.696 483.101 366.317 473.027 368.546 462.675C353.942 470.33 338.106 474.727 322.227 475.536L322.228 475.536Z" fill="#CF0057"/>
<path d="M255.448 436.018C252.746 438.564 250.172 441.228 247.736 444.001C261.32 447.649 274.309 453.875 285.964 462.325C286.851 460.703 287.963 459.215 289.268 457.906C291.99 455.19 295.453 453.338 299.223 452.58C300.048 436.715 304.457 420.895 312.121 406.309C312.128 406.295 312.135 406.28 312.143 406.265C301.783 408.493 291.702 412.112 282.217 417.01C272.441 422.114 263.418 428.521 255.448 436.018Z" fill="#CF0057"/>
<path d="M333.382 377.26C312.893 397.825 300.613 424.9 299.218 452.589C305.632 451.289 312.271 453.286 316.902 457.909C321.547 462.558 323.543 469.23 322.213 475.664C349.925 474.251 377.014 461.947 397.577 441.433C423.865 415.102 436.291 378.504 430.609 344.147C423.826 343.04 416.884 342.628 409.884 342.917C381.786 344.063 354.229 356.433 333.384 377.257L333.382 377.26ZM373.524 375.187C380.736 367.976 392.43 367.974 399.643 375.183C399.645 375.184 399.646 375.186 399.648 375.187C406.862 382.397 406.864 394.087 399.653 401.299C399.651 401.3 399.649 401.302 399.648 401.303C392.434 408.511 380.741 408.509 373.53 401.298C366.316 394.089 366.314 382.399 373.524 375.187Z" fill="#FFC2DC"/>
<path d="M300.94 499.812C297.511 503.662 293.54 507.045 289.162 509.845C275.49 518.551 258.908 520.947 244.352 516.32C243.766 521.005 243.845 525.687 244.587 530.222C260.755 532.871 277.966 527.012 290.345 514.646C294.672 510.286 298.26 505.263 300.942 499.812H300.94Z" fill="#F1B31C"/>
<path d="M299.632 447.524C299.503 449.201 299.413 450.876 299.364 452.549C305.737 451.311 312.309 453.319 316.901 457.908C321.546 462.556 323.542 469.228 322.212 475.663C349.922 474.246 377.008 461.94 397.568 441.426C403.417 435.525 408.639 429.042 413.135 422.102C407.859 426.907 402.149 431.245 396.086 435.056C366.486 453.507 330.702 458.132 299.63 447.524L299.632 447.524Z" fill="#F21170"/>
<path d="M291.153 486.158C294.561 484.446 297.892 482.563 301.141 480.526C310.71 474.524 319.461 467.191 327.106 458.768L327.117 458.757C334.481 450.567 340.725 441.45 345.654 431.684C345.893 431.213 346.033 430.697 346.064 430.17C332.753 427.219 287.917 470.319 291.153 486.158Z" fill="#CF0057"/>
<path d="M277.891 472.497C271.319 475.271 265.271 479.341 260.136 484.446C247.767 496.834 241.917 514.053 244.586 530.22C260.754 532.868 277.964 527.01 290.344 514.643C295.453 509.511 299.527 503.465 302.305 496.894" stroke="black" stroke-width="1.949" stroke-miterlimit="10" stroke-linecap="round" stroke-linejoin="round"/>
<path d="M255.448 436.016C252.746 438.562 250.172 441.227 247.736 444C261.32 447.647 274.309 453.873 285.964 462.323C286.851 460.702 287.963 459.214 289.268 457.905C291.99 455.189 295.453 453.336 299.223 452.579C300.048 436.714 304.457 420.894 312.121 406.308C312.128 406.293 312.135 406.279 312.143 406.264C301.783 408.491 291.702 412.11 282.217 417.009C272.441 422.112 263.418 428.519 255.448 436.016Z" stroke="black" stroke-width="1.949" stroke-miterlimit="10" stroke-linecap="round" stroke-linejoin="round"/>
<path d="M322.228 475.536C321.476 479.319 319.62 482.796 316.895 485.526C315.567 486.847 314.057 487.97 312.409 488.861C320.879 500.5 327.128 513.476 330.799 527.051C333.576 524.616 336.245 522.043 338.795 519.341C346.29 511.373 352.696 502.352 357.798 492.58C362.696 483.101 366.317 473.027 368.546 462.675C353.942 470.33 338.106 474.727 322.227 475.536L322.228 475.536Z" stroke="black" stroke-width="1.949" stroke-miterlimit="10" stroke-linecap="round" stroke-linejoin="round"/>
<path d="M321.667 465.767C322.723 469.239 322.649 472.394 322.204 475.655C349.918 474.241 377.01 461.935 397.573 441.419C423.856 415.093 436.284 378.505 430.61 344.152C396.256 338.526 359.687 350.975 333.387 377.251C312.894 397.817 300.613 424.893 299.217 452.584C302.904 451.837 306.653 452.215 310.064 453.519" stroke="black" stroke-width="1.949" stroke-miterlimit="10" stroke-linecap="round" stroke-linejoin="round"/>
<path d="M342.199 429.934H342.198C332.737 434.705 323.898 440.754 315.958 447.889C307.792 455.296 300.683 463.774 294.869 473.038C292.895 476.184 291.076 479.412 289.418 482.71" stroke="black" stroke-width="1.949" stroke-miterlimit="10" stroke-linecap="round" stroke-linejoin="round"/>
<g clip-path="url(#clip0)">
<path d="M584 328C643.094 328 691 280.094 691 221C691 161.906 643.094 114 584 114C524.906 114 477 161.906 477 221C477 280.094 524.906 328 584 328Z" fill="#FFC2DC"/>
<path d="M528 327.555C555.921 327.555 578.556 304.921 578.556 277C578.556 249.079 555.921 226.444 528 226.444C500.079 226.444 477.444 249.079 477.444 277C477.444 304.921 500.079 327.555 528 327.555Z" fill="#F9F9F9" stroke="#3F3F3F" stroke-width="2" stroke-linecap="round" stroke-linejoin="round"/>
<path d="M562.306 275.194C562.305 288.148 557.333 300.608 548.414 310.002C539.495 319.397 527.311 325.009 514.374 325.682C521.327 327.629 528.616 328.063 535.751 326.956C542.885 325.85 549.7 323.227 555.737 319.266C561.773 315.305 566.891 310.097 570.746 303.993C574.601 297.888 577.104 291.029 578.086 283.876C579.068 276.723 578.507 269.443 576.44 262.525C574.373 255.607 570.848 249.212 566.102 243.771C561.357 238.33 555.501 233.968 548.929 230.979C542.356 227.99 535.22 226.444 528 226.444C527.12 226.444 526.245 226.467 525.376 226.512C535.999 229.487 545.358 235.855 552.026 244.644C558.693 253.433 562.303 264.162 562.306 275.194Z" fill="#F21170"/>
<path d="M528 327.555C555.921 327.555 578.556 304.921 578.556 277C578.556 249.079 555.921 226.444 528 226.444C500.079 226.444 477.444 249.079 477.444 277C477.444 304.921 500.079 327.555 528 327.555Z" stroke="black" stroke-width="2" stroke-linecap="round" stroke-linejoin="round"/>
<path d="M562.306 275.194C562.305 288.148 557.333 300.608 548.414 310.002C539.495 319.397 527.311 325.009 514.374 325.682C521.327 327.629 528.616 328.063 535.751 326.956C542.885 325.85 549.7 323.227 555.737 319.266C561.773 315.305 566.891 310.097 570.746 303.993C574.601 297.888 577.104 291.029 578.086 283.876C579.068 276.723 578.507 269.443 576.44 262.525C574.373 255.607 570.848 249.212 566.102 243.771C561.357 238.33 555.501 233.968 548.929 230.979C542.356 227.99 535.22 226.444 528 226.444C527.12 226.444 526.245 226.467 525.376 226.512C535.999 229.487 545.358 235.855 552.026 244.644C558.693 253.433 562.303 264.162 562.306 275.194Z" stroke="black" stroke-width="2" stroke-linecap="round" stroke-linejoin="round"/>
</g>
<defs>
<clipPath id="clip0">
<rect width="215" height="215" fill="white" transform="translate(476 114)"/>
</clipPath>
</defs>
</svg>
