<svg width="348" height="53" viewBox="0 0 348 53" fill="none" xmlns="http://www.w3.org/2000/svg">
<path d="M24 50C37.2548 50 48 39.2548 48 26C48 12.7452 37.2548 2 24 2C10.7452 2 0 12.7452 0 26C0 39.2548 10.7452 50 24 50Z" fill="#F21170"/>
<path d="M27 50C40.8071 50 52 38.8071 52 25C52 11.1929 40.8071 0 27 0C13.1929 0 2 11.1929 2 25C2 38.8071 13.1929 50 27 50Z" fill="#F21170" fill-opacity="0.24"/>
<path d="M18.498 43.3739C14.202 41.8839 12.0366 38.5728 12.0366 34.6904H12.1305C12.1305 34.6904 24.268 37.7531 35.8135 34.7564L35.9741 34.6904C36.0075 36.6417 35.3973 38.5496 34.2377 40.1193C33.0781 41.689 31.4338 42.8331 29.5589 43.3746" fill="white"/>
<path d="M28.5383 39.2889C28.5383 39.2889 30.0563 48.1079 27.4739 50.2283L27.4994 50.2065C27.0441 50.6754 26.4994 51.0482 25.8975 51.3028C25.2955 51.5573 24.6486 51.6885 23.995 51.6885C23.3415 51.6885 22.6946 51.5573 22.0926 51.3028C21.4907 51.0482 20.9459 50.6754 20.4907 50.2065C17.9083 48.0865 19.4263 39.2671 19.4263 39.2671" fill="#FFC4DD"/>
<path d="M18.498 43.3739C14.202 41.8839 12.0366 38.5728 12.0366 34.6904H12.1305C12.1305 34.6904 24.268 37.7531 35.8135 34.7564L35.9741 34.6904C36.0075 36.6417 35.3973 38.5496 34.2377 40.1193C33.0781 41.689 31.4338 42.8331 29.5589 43.3746" stroke="black" stroke-width="2" stroke-linecap="round" stroke-linejoin="round"/>
<path d="M8.2793 17.2C8.99923 15.8147 10.2074 14.7458 11.67 14.2C13.075 13.5007 14.6902 13.3506 16.2 13.7791" stroke="black" stroke-width="2" stroke-linecap="round" stroke-linejoin="round"/>
<path d="M38.89 17.1997C38.1195 15.8499 36.9323 14.7861 35.5064 14.1678C34.0804 13.5494 32.4925 13.4097 30.9805 13.7697" stroke="black" stroke-width="2" stroke-linecap="round" stroke-linejoin="round"/>
<path d="M32.324 47.4472C37.3282 45.5043 41.4952 41.8723 44.1031 37.1803C46.7111 32.4883 47.5957 27.0319 46.6038 21.7563C45.6118 16.4806 42.8058 11.7181 38.6718 8.29379C34.5378 4.86944 29.3362 2.99896 23.9681 3.00637C18.6 3.01378 13.4036 4.89862 9.27909 8.33437C5.15454 11.7701 2.36167 16.5403 1.3843 21.8187C0.406923 27.0971 1.30661 32.551 3.92751 37.2358C6.5484 41.9206 10.7254 45.5411 15.7349 47.4701" stroke="black" stroke-width="2" stroke-linecap="round" stroke-linejoin="round"/>
<path d="M8.2793 17.2C8.99923 15.8147 10.2074 14.7458 11.67 14.2C13.075 13.5007 14.6902 13.3506 16.2 13.7791" stroke="white" stroke-width="2" stroke-linecap="round" stroke-linejoin="round"/>
<path d="M38.89 17.1997C38.1195 15.8499 36.9323 14.7861 35.5064 14.1678C34.0804 13.5494 32.4925 13.4097 30.9805 13.7697" stroke="white" stroke-width="2" stroke-linecap="round" stroke-linejoin="round"/>
<path d="M28.5383 39.2884C28.5383 39.2884 30.0563 48.1074 27.4739 50.2278L27.4994 50.206C27.0442 50.6749 26.4995 51.0477 25.8975 51.3023C25.2956 51.5568 24.6487 51.688 23.9951 51.688C23.3415 51.688 22.6946 51.5568 22.0927 51.3023C21.4907 51.0477 20.946 50.6749 20.4907 50.206C17.9083 48.086 19.4263 39.2666 19.4263 39.2666" stroke="black" stroke-width="2" stroke-linecap="round" stroke-linejoin="round"/>
<path d="M17.23 21.5489C17.086 21.1551 16.8178 20.8187 16.466 20.5903C16.1142 20.362 15.6978 20.2542 15.2794 20.283C14.8063 20.2356 14.3334 20.3747 13.9615 20.6709C13.5895 20.967 13.348 21.3968 13.2883 21.8684C13.348 22.3401 13.5895 22.7699 13.9615 23.066C14.3334 23.3622 14.8063 23.5014 15.2794 23.4538L15.2394 23.4597C15.7124 23.4124 16.1852 23.5516 16.557 23.8478C16.9288 24.1439 17.1703 24.5736 17.23 25.0451C17.1704 25.5168 16.9288 25.9466 16.5569 26.2427C16.1849 26.5389 15.712 26.6781 15.2389 26.6305V26.6305C14.8205 26.6594 14.404 26.5516 14.0522 26.3233C13.7004 26.0949 13.4323 25.7585 13.2882 25.3646" stroke="black" stroke-width="2" stroke-linecap="round" stroke-linejoin="round"/>
<path d="M15.2589 20.2834V18.772" stroke="black" stroke-width="2" stroke-linecap="round" stroke-linejoin="round"/>
<path d="M15.2589 28.1423V26.6309" stroke="black" stroke-width="2" stroke-linecap="round" stroke-linejoin="round"/>
<path d="M34.2668 21.5489C34.1228 21.1551 33.8547 20.8187 33.5029 20.5903C33.1511 20.362 32.7346 20.2542 32.3162 20.283V20.283C31.8432 20.2356 31.3703 20.3747 30.9983 20.6709C30.6264 20.967 30.3848 21.3968 30.3251 21.8684C30.3848 22.3401 30.6263 22.7699 30.9983 23.066C31.3702 23.3622 31.8432 23.5014 32.3162 23.4538L32.2762 23.4597C32.7493 23.4123 33.2222 23.5514 33.5942 23.8476C33.9661 24.1437 34.2077 24.5735 34.2673 25.0451C34.2077 25.5168 33.9661 25.9466 33.5942 26.2427C33.2222 26.5389 32.7493 26.6781 32.2762 26.6305C31.8578 26.6594 31.4414 26.5516 31.0896 26.3233C30.7377 26.0949 30.4696 25.7585 30.3255 25.3646" stroke="black" stroke-width="2" stroke-linecap="round" stroke-linejoin="round"/>
<path d="M32.2959 20.2834V18.772" stroke="black" stroke-width="2" stroke-linecap="round" stroke-linejoin="round"/>
<path d="M32.2959 28.1423V26.6309" stroke="black" stroke-width="2" stroke-linecap="round" stroke-linejoin="round"/>
<path d="M25.9415 43.3073C25.7975 42.9134 25.5294 42.577 25.1776 42.3486C24.8258 42.1203 24.4093 42.0125 23.9909 42.0413C23.7526 41.9865 23.5049 41.9862 23.2664 42.0404C23.0279 42.0946 22.8047 42.2018 22.6134 42.3542C22.422 42.5065 22.2675 42.7001 22.1613 42.9204C22.0551 43.1407 22 43.3821 22 43.6267C22 43.8713 22.0551 44.1127 22.1613 44.333C22.2675 44.5533 22.422 44.7469 22.6134 44.8992C22.8047 45.0516 23.0279 45.1588 23.2664 45.213C23.5049 45.2672 23.7526 45.2669 23.9909 45.2121L23.9509 45.218C24.1893 45.1632 24.4369 45.1629 24.6754 45.2171C24.9139 45.2713 25.1372 45.3785 25.3285 45.5309C25.5198 45.6832 25.6743 45.8768 25.7805 46.0971C25.8867 46.3174 25.9418 46.5588 25.9418 46.8034C25.9418 47.048 25.8867 47.2894 25.7805 47.5097C25.6743 47.73 25.5198 47.9236 25.3285 48.0759C25.1372 48.2283 24.9139 48.3355 24.6754 48.3897C24.4369 48.4439 24.1893 48.4436 23.9509 48.3888C23.5325 48.4177 23.1161 48.3098 22.7642 48.0815C22.4124 47.8532 22.1443 47.5168 22.0002 47.1229" stroke="black" stroke-width="2" stroke-linecap="round" stroke-linejoin="round"/>
<path d="M23.9264 41.8797V40.3682" stroke="black" stroke-width="2" stroke-linecap="round" stroke-linejoin="round"/>
<path d="M23.9264 49.7389V48.2275" stroke="black" stroke-width="2" stroke-linecap="round" stroke-linejoin="round"/>
<path d="M80.64 41.12C78.3734 41.12 76.1734 40.84 74.04 40.28C71.9067 39.72 70.1734 38.9733 68.84 38.04L71.44 32.2C72.6934 33.0267 74.1467 33.6933 75.8 34.2C77.4534 34.7067 79.08 34.96 80.68 34.96C83.72 34.96 85.24 34.2 85.24 32.68C85.24 31.88 84.8 31.2933 83.92 30.92C83.0667 30.52 81.68 30.1067 79.76 29.68C77.6534 29.2267 75.8934 28.7467 74.48 28.24C73.0667 27.7067 71.8534 26.8667 70.84 25.72C69.8267 24.5733 69.32 23.0267 69.32 21.08C69.32 19.3733 69.7867 17.84 70.72 16.48C71.6534 15.0933 73.04 14 74.88 13.2C76.7467 12.4 79.0267 12 81.72 12C83.56 12 85.3734 12.2133 87.16 12.64C88.9467 13.04 90.52 13.64 91.88 14.44L89.44 20.32C86.7734 18.88 84.1867 18.16 81.68 18.16C80.1067 18.16 78.96 18.4 78.24 18.88C77.52 19.3333 77.16 19.9333 77.16 20.68C77.16 21.4267 77.5867 21.9867 78.44 22.36C79.2934 22.7333 80.6667 23.12 82.56 23.52C84.6934 23.9733 86.4534 24.4667 87.84 25C89.2534 25.5067 90.4667 26.3333 91.48 27.48C92.52 28.6 93.04 30.1333 93.04 32.08C93.04 33.76 92.5734 35.28 91.64 36.64C90.7067 38 89.3067 39.0933 87.44 39.92C85.5734 40.72 83.3067 41.12 80.64 41.12Z" fill="white"/>
<path d="M109.618 41.12C105.458 41.12 102.218 39.9867 99.8985 37.72C97.6051 35.4533 96.4585 32.24 96.4585 28.08V12.56H104.378V27.84C104.378 32.32 106.152 34.56 109.698 34.56C113.218 34.56 114.978 32.32 114.978 27.84V12.56H122.778V28.08C122.778 32.24 121.618 35.4533 119.298 37.72C117.005 39.9867 113.778 41.12 109.618 41.12Z" fill="white"/>
<path d="M140.944 12.56C143.477 12.56 145.677 12.9867 147.544 13.84C149.41 14.6667 150.85 15.8667 151.864 17.44C152.877 18.9867 153.384 20.8133 153.384 22.92C153.384 25.0267 152.877 26.8533 151.864 28.4C150.85 29.9467 149.41 31.1467 147.544 32C145.677 32.8267 143.477 33.24 140.944 33.24H136.064V40.56H128.144V12.56H140.944ZM140.464 27C142.09 27 143.317 26.6533 144.144 25.96C144.97 25.24 145.384 24.2267 145.384 22.92C145.384 21.6133 144.97 20.6 144.144 19.88C143.317 19.16 142.09 18.8 140.464 18.8H136.064V27H140.464Z" fill="white"/>
<path d="M179.725 34.44V40.56H157.245V12.56H179.205V18.68H165.085V23.4H177.525V29.32H165.085V34.44H179.725Z" fill="white"/>
<path d="M196.36 33.12H192.04V40.56H184.12V12.56H196.92C199.454 12.56 201.654 12.9867 203.52 13.84C205.387 14.6667 206.827 15.8667 207.84 17.44C208.854 18.9867 209.36 20.8133 209.36 22.92C209.36 24.9467 208.88 26.72 207.92 28.24C206.987 29.7333 205.64 30.9067 203.88 31.76L209.92 40.56H201.44L196.36 33.12ZM201.36 22.92C201.36 21.6133 200.947 20.6 200.12 19.88C199.294 19.16 198.067 18.8 196.44 18.8H192.04V27H196.44C198.067 27 199.294 26.6533 200.12 25.96C200.947 25.24 201.36 24.2267 201.36 22.92Z" fill="white"/>
<path d="M227.69 41.12C224.756 41.12 222.116 40.5067 219.77 39.28C217.45 38.0267 215.623 36.2933 214.29 34.08C212.956 31.8667 212.29 29.36 212.29 26.56C212.29 23.76 212.956 21.2533 214.29 19.04C215.623 16.8267 217.45 15.1067 219.77 13.88C222.116 12.6267 224.756 12 227.69 12C230.25 12 232.556 12.4533 234.61 13.36C236.663 14.2667 238.37 15.5733 239.73 17.28L234.69 21.84C232.876 19.6533 230.676 18.56 228.09 18.56C226.57 18.56 225.21 18.8933 224.01 19.56C222.836 20.2267 221.916 21.1733 221.25 22.4C220.61 23.6 220.29 24.9867 220.29 26.56C220.29 28.1333 220.61 29.5333 221.25 30.76C221.916 31.96 222.836 32.8933 224.01 33.56C225.21 34.2267 226.57 34.56 228.09 34.56C230.676 34.56 232.876 33.4667 234.69 31.28L239.73 35.84C238.37 37.5467 236.663 38.8533 234.61 39.76C232.556 40.6667 230.25 41.12 227.69 41.12Z" fill="white"/>
<path d="M258.144 30.52V40.56H250.224V30.4L239.544 12.56H247.904L254.544 23.68L261.184 12.56H268.864L258.144 30.52Z" fill="white"/>
<path d="M283.627 41.12C280.694 41.12 278.054 40.5067 275.707 39.28C273.387 38.0267 271.561 36.2933 270.227 34.08C268.894 31.8667 268.227 29.36 268.227 26.56C268.227 23.76 268.894 21.2533 270.227 19.04C271.561 16.8267 273.387 15.1067 275.707 13.88C278.054 12.6267 280.694 12 283.627 12C286.187 12 288.494 12.4533 290.547 13.36C292.601 14.2667 294.307 15.5733 295.667 17.28L290.627 21.84C288.814 19.6533 286.614 18.56 284.027 18.56C282.507 18.56 281.147 18.8933 279.947 19.56C278.774 20.2267 277.854 21.1733 277.187 22.4C276.547 23.6 276.227 24.9867 276.227 26.56C276.227 28.1333 276.547 29.5333 277.187 30.76C277.854 31.96 278.774 32.8933 279.947 33.56C281.147 34.2267 282.507 34.56 284.027 34.56C286.614 34.56 288.814 33.4667 290.627 31.28L295.667 35.84C294.307 37.5467 292.601 38.8533 290.547 39.76C288.494 40.6667 286.187 41.12 283.627 41.12Z" fill="white"/>
<path d="M299.198 12.56H307.118V34.28H320.478V40.56H299.198V12.56Z" fill="white"/>
<path d="M346.093 34.44V40.56H323.613V12.56H345.573V18.68H331.453V23.4H343.893V29.32H331.453V34.44H346.093Z" fill="white"/>
</svg>
