<svg width="428" height="368" viewBox="0 0 428 368" fill="none" xmlns="http://www.w3.org/2000/svg">
<path d="M267.352 343.812C267.341 343.417 267.477 343.089 267.758 342.828C268.039 342.568 268.375 342.438 268.766 342.438C269.151 342.438 269.479 342.557 269.75 342.797C270.021 343.031 270.161 343.339 270.172 343.719C270.182 344.109 270.049 344.438 269.773 344.703C269.497 344.964 269.159 345.094 268.758 345.094C268.362 345.094 268.031 344.974 267.766 344.734C267.5 344.495 267.362 344.188 267.352 343.812ZM272.117 343.812C272.107 343.417 272.242 343.089 272.523 342.828C272.805 342.568 273.141 342.438 273.531 342.438C273.917 342.438 274.245 342.557 274.516 342.797C274.786 343.031 274.927 343.339 274.938 343.719C274.948 344.109 274.815 344.438 274.539 344.703C274.263 344.964 273.924 345.094 273.523 345.094C273.128 345.094 272.797 344.974 272.531 344.734C272.266 344.495 272.128 344.188 272.117 343.812ZM276.883 343.812C276.872 343.417 277.008 343.089 277.289 342.828C277.57 342.568 277.906 342.438 278.297 342.438C278.682 342.438 279.01 342.557 279.281 342.797C279.552 343.031 279.693 343.339 279.703 343.719C279.714 344.109 279.581 344.438 279.305 344.703C279.029 344.964 278.69 345.094 278.289 345.094C277.893 345.094 277.562 344.974 277.297 344.734C277.031 344.495 276.893 344.188 276.883 343.812ZM290.133 336.391C290.888 336.401 291.542 336.591 292.094 336.961C292.646 337.326 293.049 337.836 293.305 338.492C293.565 339.148 293.659 339.878 293.586 340.68L293.57 340.852C293.424 342.148 292.943 343.195 292.125 343.992C291.307 344.789 290.297 345.177 289.094 345.156C288.344 345.146 287.695 344.961 287.148 344.602C286.602 344.237 286.195 343.729 285.93 343.078C285.669 342.427 285.576 341.703 285.648 340.906C285.779 339.521 286.253 338.417 287.07 337.594C287.893 336.771 288.914 336.37 290.133 336.391ZM288.219 340.906L288.195 341.367C288.122 342.529 288.477 343.12 289.258 343.141C290.268 343.172 290.854 342.352 291.016 340.68L291.047 339.969C291.057 339.5 290.969 339.128 290.781 338.852C290.599 338.57 290.328 338.424 289.969 338.414C289.495 338.398 289.104 338.594 288.797 339C288.495 339.401 288.302 340.036 288.219 340.906ZM300.102 338.93C299.826 338.888 299.56 338.862 299.305 338.852C298.534 338.831 297.945 339.096 297.539 339.648L296.586 345H294.016L295.484 336.547L297.883 336.539L297.688 337.648C298.24 336.794 298.891 336.367 299.641 336.367C299.854 336.367 300.12 336.404 300.438 336.477L300.102 338.93ZM308.688 342.578C308.755 342.234 308.49 341.977 307.891 341.805L307.336 341.664C306.43 341.424 305.766 341.089 305.344 340.656C304.922 340.224 304.724 339.711 304.75 339.117C304.776 338.305 305.135 337.646 305.828 337.141C306.526 336.63 307.375 336.38 308.375 336.391C309.37 336.401 310.174 336.654 310.789 337.148C311.409 337.643 311.724 338.31 311.734 339.148L309.172 339.141C309.193 338.474 308.898 338.141 308.289 338.141C308.029 338.141 307.786 338.219 307.562 338.375C307.339 338.526 307.206 338.729 307.164 338.984C307.076 339.406 307.448 339.695 308.281 339.852C309.005 340.023 309.565 340.224 309.961 340.453C310.357 340.677 310.659 340.956 310.867 341.289C311.076 341.622 311.172 342.023 311.156 342.492C311.141 343.003 310.974 343.458 310.656 343.859C310.339 344.26 309.878 344.581 309.273 344.82C308.674 345.06 308.023 345.172 307.32 345.156C306.711 345.151 306.143 345.023 305.617 344.773C305.096 344.523 304.688 344.185 304.391 343.758C304.099 343.326 303.948 342.831 303.938 342.273L306.328 342.289C306.339 343.039 306.714 343.409 307.453 343.398C307.771 343.398 308.042 343.328 308.266 343.188C308.49 343.042 308.63 342.839 308.688 342.578ZM316.156 345.156C315.401 345.151 314.727 344.974 314.133 344.625C313.544 344.271 313.099 343.781 312.797 343.156C312.495 342.526 312.375 341.833 312.438 341.078L312.461 340.859C312.602 339.469 313.083 338.37 313.906 337.562C314.734 336.75 315.747 336.359 316.945 336.391C317.669 336.401 318.289 336.586 318.805 336.945C319.32 337.299 319.698 337.792 319.938 338.422C320.177 339.047 320.255 339.75 320.172 340.531L320.023 341.602H314.992C315.003 342.044 315.128 342.404 315.367 342.68C315.607 342.956 315.956 343.102 316.414 343.117C317.159 343.138 317.828 342.852 318.422 342.258L319.5 343.688C319.182 344.141 318.737 344.497 318.164 344.758C317.596 345.013 316.974 345.146 316.297 345.156H316.156ZM316.781 338.414C316.417 338.404 316.099 338.518 315.828 338.758C315.562 338.997 315.331 339.398 315.133 339.961H317.703L317.75 339.734C317.781 339.552 317.786 339.38 317.766 339.219C317.677 338.698 317.349 338.43 316.781 338.414ZM323.195 345H320.617L322.695 333H325.273L323.195 345ZM327.539 345H324.961L327.039 333H329.617L327.539 345ZM337.891 345C337.818 344.797 337.781 344.542 337.781 344.234C337.203 344.87 336.513 345.177 335.711 345.156C334.977 345.146 334.367 344.901 333.883 344.422C333.398 343.943 333.172 343.362 333.203 342.68C333.229 341.763 333.612 341.06 334.352 340.57C335.091 340.076 336.102 339.828 337.383 339.828L338.242 339.844L338.336 339.367L338.367 338.953C338.346 338.479 338.109 338.234 337.656 338.219C337.094 338.208 336.747 338.518 336.617 339.148L334.039 339.156C334.065 338.589 334.25 338.096 334.594 337.68C334.938 337.258 335.404 336.935 335.992 336.711C336.586 336.482 337.216 336.375 337.883 336.391C338.523 336.406 339.083 336.542 339.562 336.797C340.047 337.047 340.409 337.398 340.648 337.852C340.888 338.299 340.979 338.818 340.922 339.406L340.289 343.383L340.25 343.867C340.229 344.253 340.279 344.581 340.398 344.852L340.391 345H337.891ZM336.422 343.297C336.948 343.318 337.409 343.086 337.805 342.602L338.062 341.242L337.398 341.234C336.987 341.245 336.633 341.367 336.336 341.602C336.039 341.831 335.865 342.146 335.812 342.547C335.786 342.76 335.826 342.938 335.93 343.078C336.039 343.214 336.203 343.286 336.422 343.297ZM345.25 336.539L345.07 337.555C345.747 336.753 346.562 336.362 347.516 336.383C348.297 336.398 348.878 336.69 349.258 337.258C349.643 337.82 349.784 338.628 349.68 339.68L348.789 345H346.211L347.109 339.664C347.13 339.482 347.135 339.315 347.125 339.164C347.089 338.669 346.797 338.422 346.25 338.422C345.797 338.411 345.383 338.612 345.008 339.023L343.953 345H341.383L342.852 336.547L345.25 336.539ZM350.688 340.758C350.849 339.424 351.255 338.357 351.906 337.555C352.557 336.753 353.406 336.365 354.453 336.391C355.172 336.411 355.768 336.714 356.242 337.297L357.062 333H359.641L357.562 345H355.273L355.383 344.086C354.753 344.826 354.052 345.185 353.281 345.164C352.469 345.154 351.831 344.854 351.367 344.266C350.909 343.672 350.664 342.878 350.633 341.883C350.622 341.555 350.633 341.234 350.664 340.922L350.688 340.758ZM353.25 340.93C353.208 341.263 353.19 341.555 353.195 341.805C353.195 342.669 353.487 343.109 354.07 343.125C354.576 343.141 355.026 342.898 355.422 342.398L356 339.156C355.828 338.677 355.484 338.43 354.969 338.414C354.49 338.404 354.102 338.612 353.805 339.039C353.513 339.461 353.328 340.091 353.25 340.93ZM366.75 337.469C367.38 336.734 368.107 336.372 368.93 336.383C369.779 336.404 370.406 336.714 370.812 337.312C371.224 337.911 371.372 338.724 371.258 339.75L370.383 345H367.812L368.695 339.719C368.716 339.542 368.721 339.375 368.711 339.219C368.674 338.703 368.388 338.438 367.852 338.422C367.388 338.411 366.977 338.581 366.617 338.93L365.539 345H362.969L365.055 333H367.625L366.75 337.469ZM376.641 345C376.568 344.797 376.531 344.542 376.531 344.234C375.953 344.87 375.263 345.177 374.461 345.156C373.727 345.146 373.117 344.901 372.633 344.422C372.148 343.943 371.922 343.362 371.953 342.68C371.979 341.763 372.362 341.06 373.102 340.57C373.841 340.076 374.852 339.828 376.133 339.828L376.992 339.844L377.086 339.367L377.117 338.953C377.096 338.479 376.859 338.234 376.406 338.219C375.844 338.208 375.497 338.518 375.367 339.148L372.789 339.156C372.815 338.589 373 338.096 373.344 337.68C373.688 337.258 374.154 336.935 374.742 336.711C375.336 336.482 375.966 336.375 376.633 336.391C377.273 336.406 377.833 336.542 378.312 336.797C378.797 337.047 379.159 337.398 379.398 337.852C379.638 338.299 379.729 338.818 379.672 339.406L379.039 343.383L379 343.867C378.979 344.253 379.029 344.581 379.148 344.852L379.141 345H376.641ZM375.172 343.297C375.698 343.318 376.159 343.086 376.555 342.602L376.812 341.242L376.148 341.234C375.737 341.245 375.383 341.367 375.086 341.602C374.789 341.831 374.615 342.146 374.562 342.547C374.536 342.76 374.576 342.938 374.68 343.078C374.789 343.214 374.953 343.286 375.172 343.297ZM383.883 341.836L386 336.547H388.773L384.773 345H382.156L380.805 336.547H383.445L383.883 341.836ZM392.25 345.156C391.495 345.151 390.82 344.974 390.227 344.625C389.638 344.271 389.193 343.781 388.891 343.156C388.589 342.526 388.469 341.833 388.531 341.078L388.555 340.859C388.695 339.469 389.177 338.37 390 337.562C390.828 336.75 391.841 336.359 393.039 336.391C393.763 336.401 394.383 336.586 394.898 336.945C395.414 337.299 395.792 337.792 396.031 338.422C396.271 339.047 396.349 339.75 396.266 340.531L396.117 341.602H391.086C391.096 342.044 391.221 342.404 391.461 342.68C391.701 342.956 392.049 343.102 392.508 343.117C393.253 343.138 393.922 342.852 394.516 342.258L395.594 343.688C395.276 344.141 394.831 344.497 394.258 344.758C393.69 345.013 393.068 345.146 392.391 345.156H392.25ZM392.875 338.414C392.51 338.404 392.193 338.518 391.922 338.758C391.656 338.997 391.424 339.398 391.227 339.961H393.797L393.844 339.734C393.875 339.552 393.88 339.38 393.859 339.219C393.771 338.698 393.443 338.43 392.875 338.414ZM401.094 345L402.242 338.375H401.055L401.367 336.547L402.555 336.539L402.656 335.797C402.786 334.896 403.146 334.18 403.734 333.648C404.365 333.086 405.185 332.81 406.195 332.82C406.456 332.82 406.88 332.878 407.469 332.992L407.273 334.938C407.034 334.875 406.831 334.844 406.664 334.844C406.284 334.844 405.969 334.932 405.719 335.109C405.474 335.281 405.318 335.531 405.25 335.859L405.133 336.547H406.734L406.422 338.375H404.82L403.672 345H401.094ZM411.461 344.078C410.831 344.823 410.07 345.185 409.18 345.164C408.352 345.154 407.727 344.865 407.305 344.297C406.888 343.729 406.727 342.969 406.82 342.016L407.734 336.547H410.305L409.375 342.047C409.359 342.198 409.359 342.336 409.375 342.461C409.411 342.888 409.664 343.109 410.133 343.125C410.674 343.146 411.135 342.932 411.516 342.484L412.562 336.547H415.148L413.68 345H411.289L411.461 344.078ZM418.875 336.539L418.695 337.555C419.372 336.753 420.188 336.362 421.141 336.383C421.922 336.398 422.503 336.69 422.883 337.258C423.268 337.82 423.409 338.628 423.305 339.68L422.414 345H419.836L420.734 339.664C420.755 339.482 420.76 339.315 420.75 339.164C420.714 338.669 420.422 338.422 419.875 338.422C419.422 338.411 419.008 338.612 418.633 339.023L417.578 345H415.008L416.477 336.547L418.875 336.539ZM308.031 361.578C308.099 361.234 307.833 360.977 307.234 360.805L306.68 360.664C305.773 360.424 305.109 360.089 304.688 359.656C304.266 359.224 304.068 358.711 304.094 358.117C304.12 357.305 304.479 356.646 305.172 356.141C305.87 355.63 306.719 355.38 307.719 355.391C308.714 355.401 309.518 355.654 310.133 356.148C310.753 356.643 311.068 357.31 311.078 358.148L308.516 358.141C308.536 357.474 308.242 357.141 307.633 357.141C307.372 357.141 307.13 357.219 306.906 357.375C306.682 357.526 306.549 357.729 306.508 357.984C306.419 358.406 306.792 358.695 307.625 358.852C308.349 359.023 308.909 359.224 309.305 359.453C309.701 359.677 310.003 359.956 310.211 360.289C310.419 360.622 310.516 361.023 310.5 361.492C310.484 362.003 310.318 362.458 310 362.859C309.682 363.26 309.221 363.581 308.617 363.82C308.018 364.06 307.367 364.172 306.664 364.156C306.055 364.151 305.487 364.023 304.961 363.773C304.44 363.523 304.031 363.185 303.734 362.758C303.443 362.326 303.292 361.831 303.281 361.273L305.672 361.289C305.682 362.039 306.057 362.409 306.797 362.398C307.115 362.398 307.385 362.328 307.609 362.188C307.833 362.042 307.974 361.839 308.031 361.578ZM316.117 353.445L315.75 355.547H317.102L316.781 357.375H315.43L314.773 361.258C314.737 361.523 314.753 361.724 314.82 361.859C314.893 361.995 315.07 362.068 315.352 362.078C315.461 362.083 315.685 362.07 316.023 362.039L315.836 363.945C315.404 364.086 314.943 364.151 314.453 364.141C313.656 364.13 313.06 363.896 312.664 363.438C312.268 362.979 312.107 362.357 312.18 361.57L312.867 357.375H311.82L312.133 355.547H313.18L313.547 353.445H316.117ZM321.469 364C321.396 363.797 321.359 363.542 321.359 363.234C320.781 363.87 320.091 364.177 319.289 364.156C318.555 364.146 317.945 363.901 317.461 363.422C316.977 362.943 316.75 362.362 316.781 361.68C316.807 360.763 317.19 360.06 317.93 359.57C318.669 359.076 319.68 358.828 320.961 358.828L321.82 358.844L321.914 358.367L321.945 357.953C321.924 357.479 321.688 357.234 321.234 357.219C320.672 357.208 320.326 357.518 320.195 358.148L317.617 358.156C317.643 357.589 317.828 357.096 318.172 356.68C318.516 356.258 318.982 355.935 319.57 355.711C320.164 355.482 320.794 355.375 321.461 355.391C322.102 355.406 322.661 355.542 323.141 355.797C323.625 356.047 323.987 356.398 324.227 356.852C324.466 357.299 324.557 357.818 324.5 358.406L323.867 362.383L323.828 362.867C323.807 363.253 323.857 363.581 323.977 363.852L323.969 364H321.469ZM320 362.297C320.526 362.318 320.987 362.086 321.383 361.602L321.641 360.242L320.977 360.234C320.565 360.245 320.211 360.367 319.914 360.602C319.617 360.831 319.443 361.146 319.391 361.547C319.365 361.76 319.404 361.938 319.508 362.078C319.617 362.214 319.781 362.286 320 362.297ZM328.773 360.281L330.961 355.547H333.797L328.844 365.266C328.474 366.031 328.047 366.583 327.562 366.922C327.083 367.266 326.51 367.438 325.844 367.438C325.547 367.438 325.169 367.38 324.711 367.266L324.906 365.383H325.203C325.521 365.383 325.799 365.331 326.039 365.227C326.279 365.128 326.479 364.932 326.641 364.641L327.008 363.938L325.656 355.547H328.312L328.773 360.281ZM335.727 364H333.148L334.617 355.547H337.195L335.727 364ZM334.844 353.414C334.833 353.034 334.966 352.716 335.242 352.461C335.523 352.206 335.862 352.078 336.258 352.078C336.659 352.078 336.992 352.193 337.258 352.422C337.529 352.651 337.669 352.951 337.68 353.32C337.69 353.706 337.557 354.026 337.281 354.281C337.005 354.531 336.667 354.656 336.266 354.656C335.875 354.656 335.542 354.544 335.266 354.32C334.995 354.091 334.854 353.789 334.844 353.414ZM341.172 355.539L340.992 356.555C341.669 355.753 342.484 355.362 343.438 355.383C344.219 355.398 344.799 355.69 345.18 356.258C345.565 356.82 345.706 357.628 345.602 358.68L344.711 364H342.133L343.031 358.664C343.052 358.482 343.057 358.315 343.047 358.164C343.01 357.669 342.719 357.422 342.172 357.422C341.719 357.411 341.305 357.612 340.93 358.023L339.875 364H337.305L338.773 355.547L341.172 355.539ZM346.625 359.758C346.724 358.909 346.956 358.141 347.32 357.453C347.69 356.766 348.151 356.247 348.703 355.898C349.255 355.544 349.88 355.372 350.578 355.383C351.427 355.404 352.068 355.708 352.5 356.297L352.773 355.539L355.148 355.547L353.766 363.672C353.609 364.818 353.107 365.721 352.258 366.383C351.409 367.044 350.352 367.359 349.086 367.328C348.523 367.318 347.979 367.206 347.453 366.992C346.927 366.779 346.477 366.456 346.102 366.023L347.32 364.508C347.773 365.081 348.362 365.375 349.086 365.391C350.227 365.411 350.951 364.805 351.258 363.57L351.32 363.312C350.737 363.885 350.094 364.167 349.391 364.156C348.849 364.151 348.372 364.016 347.961 363.75C347.549 363.479 347.227 363.091 346.992 362.586C346.758 362.081 346.625 361.518 346.594 360.898C346.573 360.586 346.583 360.206 346.625 359.758ZM349.164 360.594C349.164 361.073 349.25 361.445 349.422 361.711C349.594 361.977 349.844 362.115 350.172 362.125C350.656 362.146 351.096 361.958 351.492 361.562L352.156 357.977C351.948 357.612 351.599 357.424 351.109 357.414C350.609 357.404 350.19 357.617 349.852 358.055C349.513 358.487 349.299 359.057 349.211 359.766C349.18 360.094 349.164 360.37 349.164 360.594ZM367.508 359.781C367.398 360.667 367.167 361.456 366.812 362.148C366.458 362.836 366.018 363.349 365.492 363.688C364.971 364.021 364.388 364.18 363.742 364.164C363.003 364.143 362.404 363.852 361.945 363.289L361.18 367.25H358.609L360.641 355.547L363.016 355.539L362.883 356.344C363.451 355.688 364.12 355.37 364.891 355.391C365.714 355.401 366.354 355.695 366.812 356.273C367.276 356.852 367.523 357.641 367.555 358.641C367.565 358.964 367.549 359.344 367.508 359.781ZM365.008 358.734C364.982 357.875 364.69 357.438 364.133 357.422C363.591 357.391 363.141 357.612 362.781 358.086L362.18 361.438C362.341 361.891 362.701 362.122 363.258 362.133C364.169 362.148 364.729 361.365 364.938 359.781C364.984 359.281 365.008 358.932 365.008 358.734ZM372.898 355.391C373.654 355.401 374.307 355.591 374.859 355.961C375.411 356.326 375.815 356.836 376.07 357.492C376.331 358.148 376.424 358.878 376.352 359.68L376.336 359.852C376.19 361.148 375.708 362.195 374.891 362.992C374.073 363.789 373.062 364.177 371.859 364.156C371.109 364.146 370.461 363.961 369.914 363.602C369.367 363.237 368.961 362.729 368.695 362.078C368.435 361.427 368.341 360.703 368.414 359.906C368.544 358.521 369.018 357.417 369.836 356.594C370.659 355.771 371.68 355.37 372.898 355.391ZM370.984 359.906L370.961 360.367C370.888 361.529 371.242 362.12 372.023 362.141C373.034 362.172 373.62 361.352 373.781 359.68L373.812 358.969C373.823 358.5 373.734 358.128 373.547 357.852C373.365 357.57 373.094 357.424 372.734 357.414C372.26 357.398 371.87 357.594 371.562 358C371.26 358.401 371.068 359.036 370.984 359.906ZM381.695 355.391C382.451 355.401 383.104 355.591 383.656 355.961C384.208 356.326 384.612 356.836 384.867 357.492C385.128 358.148 385.221 358.878 385.148 359.68L385.133 359.852C384.987 361.148 384.505 362.195 383.688 362.992C382.87 363.789 381.859 364.177 380.656 364.156C379.906 364.146 379.258 363.961 378.711 363.602C378.164 363.237 377.758 362.729 377.492 362.078C377.232 361.427 377.138 360.703 377.211 359.906C377.341 358.521 377.815 357.417 378.633 356.594C379.456 355.771 380.477 355.37 381.695 355.391ZM379.781 359.906L379.758 360.367C379.685 361.529 380.039 362.12 380.82 362.141C381.831 362.172 382.417 361.352 382.578 359.68L382.609 358.969C382.62 358.5 382.531 358.128 382.344 357.852C382.161 357.57 381.891 357.424 381.531 357.414C381.057 357.398 380.667 357.594 380.359 358C380.057 358.401 379.865 359.036 379.781 359.906ZM391.664 357.93C391.388 357.888 391.122 357.862 390.867 357.852C390.096 357.831 389.508 358.096 389.102 358.648L388.148 364H385.578L387.047 355.547L389.445 355.539L389.25 356.648C389.802 355.794 390.453 355.367 391.203 355.367C391.417 355.367 391.682 355.404 392 355.477L391.664 357.93Z" fill="white"/>
<path d="M320.444 259.74C321.127 258.471 321.222 255.555 321.222 254C321.222 250.889 318.111 245.444 318.111 245.444" stroke="black" stroke-width="2" stroke-miterlimit="10" stroke-linecap="round" stroke-linejoin="round"/>
<path d="M314.222 247C314.222 247 316.556 252.233 316.556 254.778C316.556 257.162 315.778 261 315.778 262.556" stroke="black" stroke-width="2" stroke-miterlimit="10" stroke-linecap="round" stroke-linejoin="round"/>
<path d="M295.556 259.755C294.873 258.487 294.778 255.555 294.778 254C294.778 250.889 297.889 245.444 297.889 245.444" stroke="black" stroke-width="2" stroke-miterlimit="10" stroke-linecap="round" stroke-linejoin="round"/>
<path d="M301.778 247C301.778 247 299.445 252.233 299.445 254.778C299.445 257.162 300.222 261 300.222 262.556" stroke="black" stroke-width="2" stroke-miterlimit="10" stroke-linecap="round" stroke-linejoin="round"/>
<path d="M308.155 229.36C298.379 229.36 290.422 237.317 290.422 247.093C290.422 256.87 298.379 264.827 308.155 264.827C317.932 264.827 325.889 256.87 325.889 247.093C325.889 237.317 317.932 229.36 308.155 229.36V229.36Z" fill="#FFC2DC"/>
<path fill-rule="evenodd" clip-rule="evenodd" d="M307.946 259.117C306.031 259.117 304.257 257.276 304.257 255.239C304.257 253.202 306.158 251.614 308.072 251.614C309.986 251.614 311.729 253.329 311.729 255.365C311.729 257.402 309.86 259.117 307.946 259.117V259.117Z" fill="black"/>
<path d="M304.399 254.225C305.974 255.227 310.09 255.227 311.601 254.225L308 251.11L304.399 254.225Z" fill="white"/>
<path d="M303.1 243.905C298.618 251.325 300.098 255.003 300.225 262.556C300.225 263.958 296.223 260.68 295.558 259.445C293.871 254.84 295.248 248.703 297.503 244.527C299.748 243.265 302.941 242.906 303.1 243.902V243.905Z" fill="#92D3F5"/>
<path d="M312.9 244.2C317.381 251.621 315.902 255.299 315.775 262.851C315.775 264.253 319.777 260.975 320.441 259.74C322.129 255.135 320.751 248.999 318.497 244.822C316.251 243.561 313.059 243.201 312.9 244.198V244.2Z" fill="#92D3F5"/>
<path d="M311.5 244.527C311.821 244.259 313.247 243.133 315.318 243.254C316.999 243.352 318.126 244.213 318.5 244.527" stroke="black" stroke-width="2" stroke-miterlimit="10" stroke-linecap="round" stroke-linejoin="round"/>
<path d="M297.5 244.527C297.821 244.259 299.247 243.133 301.318 243.254C302.999 243.352 304.126 244.213 304.5 244.527" stroke="black" stroke-width="2" stroke-miterlimit="10" stroke-linecap="round" stroke-linejoin="round"/>
<path d="M308 264.889C317.88 264.889 325.889 256.88 325.889 247C325.889 237.12 317.88 229.111 308 229.111C298.12 229.111 290.111 237.12 290.111 247C290.111 256.88 298.12 264.889 308 264.889Z" stroke="black" stroke-width="2" stroke-miterlimit="10"/>
<path d="M308 258.946C310.044 258.946 311.701 257.289 311.701 255.244C311.701 253.2 310.044 251.543 308 251.543C305.956 251.543 304.299 253.2 304.299 255.244C304.299 257.289 305.956 258.946 308 258.946Z" stroke="black" stroke-width="2" stroke-miterlimit="10" stroke-linecap="round" stroke-linejoin="round"/>
<path d="M398.444 259.74C399.127 258.471 399.222 255.555 399.222 254C399.222 250.889 396.111 245.444 396.111 245.444" stroke="black" stroke-width="2" stroke-miterlimit="10" stroke-linecap="round" stroke-linejoin="round"/>
<path d="M392.222 247C392.222 247 394.556 252.233 394.556 254.778C394.556 257.162 393.778 261 393.778 262.556" stroke="black" stroke-width="2" stroke-miterlimit="10" stroke-linecap="round" stroke-linejoin="round"/>
<path d="M373.556 259.755C372.873 258.487 372.778 255.555 372.778 254C372.778 250.889 375.889 245.444 375.889 245.444" stroke="black" stroke-width="2" stroke-miterlimit="10" stroke-linecap="round" stroke-linejoin="round"/>
<path d="M379.778 247C379.778 247 377.445 252.233 377.445 254.778C377.445 257.162 378.222 261 378.222 262.556" stroke="black" stroke-width="2" stroke-miterlimit="10" stroke-linecap="round" stroke-linejoin="round"/>
<path d="M386.155 229.36C376.379 229.36 368.422 237.317 368.422 247.093C368.422 256.87 376.379 264.827 386.155 264.827C395.932 264.827 403.889 256.87 403.889 247.093C403.889 237.317 395.932 229.36 386.155 229.36V229.36Z" fill="#FFC2DC"/>
<path fill-rule="evenodd" clip-rule="evenodd" d="M385.946 259.117C384.031 259.117 382.257 257.276 382.257 255.239C382.257 253.202 384.158 251.614 386.072 251.614C387.986 251.614 389.729 253.329 389.729 255.365C389.729 257.402 387.86 259.117 385.946 259.117V259.117Z" fill="black"/>
<path d="M382.399 254.225C383.974 255.227 388.09 255.227 389.601 254.225L386 251.11L382.399 254.225Z" fill="white"/>
<path d="M381.1 243.905C376.618 251.325 378.098 255.003 378.225 262.556C378.225 263.958 374.223 260.68 373.558 259.445C371.871 254.84 373.248 248.703 375.503 244.527C377.748 243.265 380.941 242.906 381.1 243.902V243.905Z" fill="#92D3F5"/>
<path d="M390.9 244.2C395.381 251.621 393.902 255.299 393.775 262.851C393.775 264.253 397.777 260.975 398.441 259.74C400.129 255.135 398.751 248.999 396.497 244.822C394.251 243.561 391.059 243.201 390.9 244.198V244.2Z" fill="#92D3F5"/>
<path d="M389.5 244.527C389.821 244.259 391.247 243.133 393.318 243.254C394.999 243.352 396.126 244.213 396.5 244.527" stroke="black" stroke-width="2" stroke-miterlimit="10" stroke-linecap="round" stroke-linejoin="round"/>
<path d="M375.5 244.527C375.821 244.259 377.247 243.133 379.318 243.254C380.999 243.352 382.126 244.213 382.5 244.527" stroke="black" stroke-width="2" stroke-miterlimit="10" stroke-linecap="round" stroke-linejoin="round"/>
<path d="M386 264.889C395.88 264.889 403.889 256.88 403.889 247C403.889 237.12 395.88 229.111 386 229.111C376.12 229.111 368.111 237.12 368.111 247C368.111 256.88 376.12 264.889 386 264.889Z" stroke="black" stroke-width="2" stroke-miterlimit="10"/>
<path d="M386 258.946C388.044 258.946 389.701 257.289 389.701 255.244C389.701 253.2 388.044 251.543 386 251.543C383.956 251.543 382.299 253.2 382.299 255.244C382.299 257.289 383.956 258.946 386 258.946Z" stroke="black" stroke-width="2" stroke-miterlimit="10" stroke-linecap="round" stroke-linejoin="round"/>
<path d="M359.444 302.74C360.127 301.471 360.222 298.555 360.222 297C360.222 293.889 357.111 288.444 357.111 288.444" stroke="black" stroke-width="2" stroke-miterlimit="10" stroke-linecap="round" stroke-linejoin="round"/>
<path d="M353.222 290C353.222 290 355.556 295.233 355.556 297.778C355.556 300.162 354.778 304 354.778 305.556" stroke="black" stroke-width="2" stroke-miterlimit="10" stroke-linecap="round" stroke-linejoin="round"/>
<path d="M334.556 302.755C333.873 301.487 333.778 298.555 333.778 297C333.778 293.889 336.889 288.444 336.889 288.444" stroke="black" stroke-width="2" stroke-miterlimit="10" stroke-linecap="round" stroke-linejoin="round"/>
<path d="M340.778 290C340.778 290 338.445 295.233 338.445 297.778C338.445 300.162 339.222 304 339.222 305.556" stroke="black" stroke-width="2" stroke-miterlimit="10" stroke-linecap="round" stroke-linejoin="round"/>
<path d="M347.155 272.36C337.379 272.36 329.422 280.317 329.422 290.093C329.422 299.87 337.379 307.827 347.155 307.827C356.932 307.827 364.889 299.87 364.889 290.093C364.889 280.317 356.932 272.36 347.155 272.36V272.36Z" fill="#FFC2DC"/>
<path fill-rule="evenodd" clip-rule="evenodd" d="M346.946 302.117C345.031 302.117 343.257 300.276 343.257 298.239C343.257 296.202 345.158 294.614 347.072 294.614C348.986 294.614 350.729 296.329 350.729 298.365C350.729 300.402 348.86 302.117 346.946 302.117V302.117Z" fill="black"/>
<path d="M343.399 297.225C344.974 298.227 349.09 298.227 350.601 297.225L347 294.11L343.399 297.225Z" fill="white"/>
<path d="M342.1 286.905C337.618 294.325 339.098 298.003 339.225 305.556C339.225 306.958 335.223 303.68 334.558 302.445C332.871 297.84 334.248 291.703 336.503 287.527C338.748 286.265 341.941 285.906 342.1 286.902V286.905Z" fill="#92D3F5"/>
<path d="M351.9 287.2C356.381 294.621 354.902 298.299 354.775 305.851C354.775 307.253 358.777 303.975 359.441 302.74C361.129 298.135 359.751 291.999 357.497 287.822C355.251 286.561 352.059 286.201 351.9 287.198V287.2Z" fill="#92D3F5"/>
<path d="M350.5 287.527C350.821 287.259 352.247 286.133 354.318 286.254C355.999 286.352 357.126 287.213 357.5 287.527" stroke="black" stroke-width="2" stroke-miterlimit="10" stroke-linecap="round" stroke-linejoin="round"/>
<path d="M336.5 287.527C336.821 287.259 338.247 286.133 340.318 286.254C341.999 286.352 343.126 287.213 343.5 287.527" stroke="black" stroke-width="2" stroke-miterlimit="10" stroke-linecap="round" stroke-linejoin="round"/>
<path d="M347 307.889C356.88 307.889 364.889 299.88 364.889 290C364.889 280.12 356.88 272.111 347 272.111C337.12 272.111 329.111 280.12 329.111 290C329.111 299.88 337.12 307.889 347 307.889Z" stroke="black" stroke-width="2" stroke-miterlimit="10"/>
<path d="M347 301.946C349.044 301.946 350.701 300.289 350.701 298.244C350.701 296.2 349.044 294.543 347 294.543C344.956 294.543 343.299 296.2 343.299 298.244C343.299 300.289 344.956 301.946 347 301.946Z" stroke="black" stroke-width="2" stroke-miterlimit="10" stroke-linecap="round" stroke-linejoin="round"/>
<path d="M127 80C149.092 80 167 62.0914 167 40C167 17.9086 149.092 0 127 0C104.909 0 87.0002 17.9086 87.0002 40C87.0002 62.0914 104.909 80 127 80Z" fill="white"/>
<path d="M127 80C149.091 80 167 62.0914 167 40C167 17.9086 149.091 0 127 0C104.909 0 87 17.9086 87 40C87 62.0914 104.909 80 127 80Z" fill="white"/>
<path d="M108.737 15.3953L122.047 13.3941L115.54 25.1761L121.556 37.2164L108.339 34.6679L98.7475 44.1104L97.0873 30.7534L85.1428 24.5488L97.3332 18.8421L99.543 5.56494L108.737 15.3953Z" fill="#29BB89"/>
<path d="M145.137 15.3953L131.827 13.3941L138.334 25.1761L132.318 37.2164L145.535 34.6679L155.127 44.1104L156.787 30.7534L168.731 24.5488L156.541 18.8421L154.331 5.56494L145.137 15.3953Z" fill="#29BB89"/>
<path d="M149.895 57.2601C146.912 64.3768 139.312 69.3101 127.062 69.3101C114.712 69.3101 107.012 64.2601 104.062 57.0435C107.445 57.8101 129.028 62.3266 149.895 57.2601Z" fill="#EA5A47"/>
<path d="M151.345 49.7769C151.345 52.4435 150.862 54.9602 149.895 57.2602C129.028 62.3269 107.445 57.8102 104.062 57.0435C103.145 54.7935 102.678 52.3435 102.678 49.7769H102.862C102.862 49.7769 127.545 55.7602 151.012 49.8935L151.345 49.7769Z" fill="white"/>
<path d="M151.345 49.7769C151.345 52.4435 150.862 54.9602 149.895 57.2602C129.028 62.3269 107.445 57.8102 104.062 57.0435C103.145 54.7935 102.678 52.3435 102.678 49.7769H102.862C102.862 49.7769 127.545 55.7602 151.012 49.8935L151.345 49.7769Z" stroke="black" stroke-width="2" stroke-miterlimit="10" stroke-linecap="round" stroke-linejoin="round"/>
<path d="M149.895 57.2596C146.912 64.3763 139.312 69.3096 127.062 69.3096C114.712 69.3096 107.012 64.2596 104.062 57.043C107.445 57.8096 129.028 62.3261 149.895 57.2596Z" stroke="black" stroke-width="2" stroke-miterlimit="10" stroke-linejoin="round"/>
<path d="M150.712 57.0596C150.445 57.1262 150.162 57.1929 149.895 57.2596" stroke="black" stroke-width="2" stroke-miterlimit="10" stroke-linejoin="round"/>
<path d="M104.062 57.0429C103.745 56.9596 103.595 56.9263 103.595 56.9263" stroke="black" stroke-width="2" stroke-miterlimit="10" stroke-linejoin="round"/>
<path d="M144.59 5.93167C139.322 3.20601 133.341 1.6665 127 1.6665C120.409 1.6665 114.207 3.32967 108.79 6.25917C108.706 6.30434 108.623 6.34984 108.54 6.39567" stroke="black" stroke-width="2" stroke-miterlimit="10" stroke-linecap="round" stroke-linejoin="round"/>
<path d="M88.9907 34.9922C88.7769 36.631 88.6667 38.3025 88.6667 39.9999C88.6667 61.1702 105.828 78.3332 127 78.3332C148.17 78.3332 165.333 61.1702 165.333 39.9999C165.333 38.321 165.225 36.6674 165.016 35.0455" stroke="black" stroke-width="2" stroke-miterlimit="10" stroke-linecap="round" stroke-linejoin="round"/>
<path d="M108.863 15.3948L122.173 13.3936L115.665 25.1756L121.682 37.216L108.465 34.6675L98.8732 44.11L97.2131 30.753L85.2686 24.5483L97.4589 18.8416L99.6687 5.56445L108.863 15.3948Z" stroke="black" stroke-width="2" stroke-miterlimit="10" stroke-linecap="round" stroke-linejoin="round"/>
<path d="M145.137 15.3948L131.827 13.3936L138.334 25.1756L132.318 37.216L145.535 34.6675L155.127 44.11L156.787 30.753L168.731 24.5483L156.541 18.8416L154.331 5.56445L145.137 15.3948Z" stroke="black" stroke-width="2" stroke-miterlimit="10" stroke-linecap="round" stroke-linejoin="round"/>
<rect x="27" y="86" width="200" height="47" fill="#F21170"/>
<path d="M54.2871 122V96.4062H63.252C66.3574 96.4062 68.7129 97.0039 70.3184 98.1992C71.9238 99.3828 72.7266 101.123 72.7266 103.42C72.7266 104.674 72.4043 105.781 71.7598 106.742C71.1152 107.691 70.2188 108.389 69.0703 108.834C70.3828 109.162 71.4141 109.824 72.1641 110.82C72.9258 111.816 73.3066 113.035 73.3066 114.477C73.3066 116.938 72.5215 118.801 70.9512 120.066C69.3809 121.332 67.1426 121.977 64.2363 122H54.2871ZM59.5605 110.855V117.764H64.0781C65.3203 117.764 66.2871 117.471 66.9785 116.885C67.6816 116.287 68.0332 115.467 68.0332 114.424C68.0332 112.08 66.8203 110.891 64.3945 110.855H59.5605ZM59.5605 107.129H63.4629C66.123 107.082 67.4531 106.021 67.4531 103.947C67.4531 102.787 67.1133 101.955 66.4336 101.451C65.7656 100.936 64.7051 100.678 63.252 100.678H59.5605V107.129ZM96.6504 96.4062V113.264C96.6504 116.064 95.7715 118.279 94.0137 119.908C92.2676 121.537 89.877 122.352 86.8418 122.352C83.8535 122.352 81.4805 121.561 79.7227 119.979C77.9648 118.396 77.0684 116.223 77.0332 113.457V96.4062H82.3066V113.299C82.3066 114.975 82.7051 116.199 83.502 116.973C84.3105 117.734 85.4238 118.115 86.8418 118.115C89.8066 118.115 91.3125 116.557 91.3594 113.439V96.4062H96.6504ZM109.799 107.938L115.125 96.4062H120.891L112.488 112.719V122H107.127V112.719L98.7246 96.4062H104.508L109.799 107.938ZM146.379 117.219H137.924L136.447 122H129.855L139.242 96.4062H145.043L154.5 122H147.873L146.379 117.219ZM139.4 112.455H144.902L142.143 103.578L139.4 112.455ZM177.756 122H171.621L162.551 106.074V122H156.381V96.4062H162.551L171.604 112.332V96.4062H177.756V122ZM181.658 122V96.4062H189.902C192.164 96.4062 194.197 96.9219 196.002 97.9531C197.807 98.9727 199.213 100.42 200.221 102.295C201.24 104.158 201.756 106.25 201.768 108.57V109.748C201.768 112.092 201.27 114.195 200.273 116.059C199.289 117.91 197.895 119.363 196.09 120.418C194.297 121.461 192.293 121.988 190.078 122H181.658ZM187.828 101.17V117.254H189.973C191.742 117.254 193.102 116.627 194.051 115.373C195 114.107 195.475 112.232 195.475 109.748V108.641C195.475 106.168 195 104.305 194.051 103.051C193.102 101.797 191.719 101.17 189.902 101.17H187.828Z" fill="white"/>
<rect y="139" width="254" height="47" fill="#F21170"/>
<path d="M51.5547 174.781C50.2891 176.188 48.4375 177.32 46 178.18C43.5625 179.039 40.8906 179.469 37.9844 179.469C33.5156 179.469 29.9453 178.102 27.2734 175.367C24.6016 172.633 23.1719 168.828 22.9844 163.953L22.9609 161C22.9609 157.641 23.5547 154.711 24.7422 152.211C25.9297 149.695 27.625 147.766 29.8281 146.422C32.0469 145.062 34.6094 144.383 37.5156 144.383C41.7656 144.383 45.0625 145.359 47.4062 147.312C49.7656 149.25 51.1406 152.148 51.5312 156.008H43.6094C43.3281 154.102 42.7188 152.742 41.7812 151.93C40.8438 151.117 39.5156 150.711 37.7969 150.711C35.7344 150.711 34.1406 151.586 33.0156 153.336C31.8906 155.086 31.3203 157.586 31.3047 160.836V162.898C31.3047 166.305 31.8828 168.867 33.0391 170.586C34.2109 172.289 36.0469 173.141 38.5469 173.141C40.6875 173.141 42.2812 172.664 43.3281 171.711V166.414H37.6094V160.766H51.5547V174.781ZM77.5 164.539H64.5625V172.672H79.8438V179H56.3359V144.875H79.8906V151.227H64.5625V158.422H77.5V164.539ZM110.453 151.227H100.211V179H91.9844V151.227H81.9297V144.875H110.453V151.227ZM137.172 166.953H132.719V179H124.492V144.875H137.922C141.969 144.875 145.133 145.773 147.414 147.57C149.695 149.367 150.836 151.906 150.836 155.188C150.836 157.562 150.352 159.531 149.383 161.094C148.43 162.656 146.93 163.922 144.883 164.891L152.008 178.648V179H143.195L137.172 166.953ZM132.719 160.602H137.922C139.484 160.602 140.656 160.195 141.438 159.383C142.234 158.555 142.633 157.406 142.633 155.938C142.633 154.469 142.234 153.32 141.438 152.492C140.641 151.648 139.469 151.227 137.922 151.227H132.719V160.602ZM164.57 179H156.367V144.875H164.57V179ZM197.898 167.445C197.789 169.82 197.148 171.922 195.977 173.75C194.805 175.562 193.156 176.969 191.031 177.969C188.922 178.969 186.508 179.469 183.789 179.469C179.305 179.469 175.773 178.008 173.195 175.086C170.617 172.164 169.328 168.039 169.328 162.711V161.023C169.328 157.68 169.906 154.758 171.062 152.258C172.234 149.742 173.914 147.805 176.102 146.445C178.289 145.07 180.82 144.383 183.695 144.383C187.836 144.383 191.164 145.477 193.68 147.664C196.195 149.836 197.625 152.836 197.969 156.664H189.766C189.703 154.586 189.18 153.094 188.195 152.188C187.211 151.281 185.711 150.828 183.695 150.828C181.648 150.828 180.148 151.594 179.195 153.125C178.242 154.656 177.742 157.102 177.695 160.461V162.875C177.695 166.516 178.148 169.117 179.055 170.68C179.977 172.242 181.555 173.023 183.789 173.023C185.68 173.023 187.125 172.578 188.125 171.688C189.125 170.797 189.656 169.383 189.719 167.445H197.898ZM230.312 179H222.133V164.75H210.016V179H201.789V144.875H210.016V158.422H222.133V144.875H230.312V179Z" fill="white"/>
<path d="M61.4033 211.176L48.6755 223.904L68.8855 244.114L81.6133 231.386L61.4033 211.176Z" fill="white"/>
<path d="M40.9792 246.778C41.3437 247.142 41.8325 247.297 42.3042 247.245C42.3042 247.245 51.2059 247.297 56.2657 242.443C56.33 242.387 56.39 242.327 56.45 242.267C58.2852 240.432 58.2809 237.46 56.45 235.629C54.619 233.798 51.6475 233.794 49.8123 235.629L40.9792 244.462C40.3403 245.101 40.3403 246.139 40.9792 246.778Z" fill="white"/>
<path d="M49.1465 243.019C49.2665 243.829 48.7865 244.999 47.8365 245.999C47.5465 246.299 47.2465 246.559 46.9365 246.759" fill="white"/>
<path d="M44.9665 245.659C44.8865 246.239 44.6065 246.769 44.1665 247.149Z" fill="white"/>
<path d="M63.0739 215.797C63.983 214.888 63.983 213.414 63.0739 212.505C62.1648 211.596 60.6908 211.596 59.7816 212.505C58.8725 213.414 58.8725 214.888 59.7816 215.797C60.6908 216.706 62.1648 216.706 63.0739 215.797Z" fill="#5C9E31"/>
<path d="M80.7221 233.007C81.6312 232.098 81.6312 230.624 80.7221 229.715C79.8129 228.806 78.339 228.806 77.4298 229.715C76.5207 230.624 76.5207 232.098 77.4298 233.007C78.339 233.917 79.8129 233.917 80.7221 233.007Z" fill="#5C9E31"/>
<path d="M52.9645 225.906C53.8736 224.997 53.8736 223.523 52.9645 222.614C52.0554 221.705 50.5814 221.705 49.6723 222.614C48.7631 223.523 48.7631 224.997 49.6723 225.906C50.5814 226.815 52.0554 226.815 52.9645 225.906Z" fill="#5C9E31"/>
<path d="M70.225 243.167C71.1341 242.258 71.1341 240.784 70.225 239.874C69.3159 238.965 67.8419 238.965 66.9328 239.874C66.0236 240.784 66.0236 242.258 66.9327 243.167C67.8419 244.076 69.3159 244.076 70.225 243.167Z" fill="#5C9E31"/>
<path d="M79.805 232.089L80.9858 230.908L61.6614 211.584L60.4806 212.765L79.805 232.089Z" fill="#5C9E31"/>
<path d="M68.0601 243.362L69.241 242.182L49.9166 222.857L48.7357 224.038L68.0601 243.362Z" fill="#5C9E31"/>
<path d="M62.8663 212.296L61.6716 211.101L48.7352 224.037L49.9299 225.232L62.8663 212.296Z" fill="#5C9E31"/>
<path d="M81.6986 231.128L80.5039 229.933L67.5675 242.87L68.7622 244.064L81.6986 231.128Z" fill="#5C9E31"/>
<path d="M71.6605 234.027C73.9028 231.785 72.7836 227.03 69.1608 223.407C65.5379 219.785 60.7833 218.665 58.541 220.908C56.2987 223.15 57.4179 227.905 61.0407 231.528C64.6636 235.15 69.4182 236.27 71.6605 234.027Z" fill="#5C9E31"/>
<path d="M74.425 225.192L62.6923 236.925C62.6501 236.967 62.6037 236.998 62.5531 237.024C62.3469 237.124 62.0815 237.082 61.903 236.903L55.6803 230.68C55.5018 230.502 55.4589 230.237 55.5597 230.03C55.5859 229.98 55.6162 229.933 55.6584 229.891L67.391 218.158C67.4332 218.116 67.4797 218.086 67.5302 218.06C67.7364 217.959 68.0018 218.002 68.1803 218.18L74.403 224.403C74.5815 224.581 74.6244 224.847 74.5236 225.053C74.4974 225.104 74.4672 225.15 74.425 225.192Z" fill="white"/>
<path d="M84.1855 203.571C84.55 203.936 84.7044 204.425 84.6529 204.896C84.6529 204.896 84.7044 213.798 79.8504 218.858C79.7947 218.922 79.7346 218.982 79.6746 219.042C77.8394 220.878 74.8678 220.873 73.0369 219.042C71.2059 217.211 71.2017 214.24 73.0369 212.405L81.87 203.572C82.509 202.933 83.5466 202.933 84.1855 203.571Z" fill="white"/>
<path d="M80.4268 211.739C81.2368 211.859 82.4068 211.379 83.4068 210.429C83.7068 210.139 83.9668 209.839 84.1668 209.529" fill="white"/>
<path d="M83.0669 207.559C83.6469 207.479 84.1769 207.199 84.5569 206.759Z" fill="white"/>
<path d="M40.9792 246.778C41.3437 247.142 41.8325 247.297 42.3042 247.245C42.3042 247.245 51.2059 247.297 56.2657 242.443C56.33 242.387 56.39 242.327 56.45 242.267C58.2852 240.432 58.2809 237.46 56.45 235.629C54.619 233.798 51.6475 233.794 49.8123 235.629L40.9792 244.462C40.3403 245.101 40.3403 246.139 40.9792 246.778Z" stroke="black" stroke-width="2" stroke-miterlimit="10" stroke-linecap="round"/>
<path d="M44.2366 247.139L44.2266 247.129" stroke="black" stroke-width="2" stroke-miterlimit="10" stroke-linecap="round"/>
<path d="M49.1465 243.019C49.2665 243.829 48.7865 244.999 47.8365 245.999C47.5465 246.299 47.2465 246.559 46.9365 246.759" stroke="black" stroke-width="2" stroke-miterlimit="10" stroke-linecap="round"/>
<path d="M44.9665 245.659C44.8865 246.239 44.6065 246.769 44.1665 247.149" stroke="black" stroke-width="2" stroke-miterlimit="10" stroke-linecap="round"/>
<path d="M68.055 243.358L49.4423 224.745C49.0518 224.355 49.0518 223.722 49.4423 223.331L60.6847 212.089C61.0752 211.698 61.7084 211.698 62.0989 212.089L80.7116 230.701C81.1021 231.092 81.1021 231.725 80.7116 232.116L69.4692 243.358C69.0787 243.749 68.4455 243.749 68.055 243.358Z" stroke="black" stroke-width="2" stroke-miterlimit="10" stroke-linecap="round" stroke-linejoin="round"/>
<path d="M74.425 225.192L62.6923 236.925C62.6501 236.967 62.6037 236.998 62.5531 237.024C62.3469 237.124 62.0815 237.082 61.903 236.903L55.6803 230.68C55.5018 230.502 55.4589 230.237 55.5597 230.03C55.5859 229.98 55.6162 229.933 55.6584 229.891L67.391 218.158C67.4332 218.116 67.4797 218.086 67.5302 218.06C67.7364 217.959 68.0018 218.002 68.1803 218.18L74.403 224.403C74.5815 224.581 74.6244 224.847 74.5236 225.053C74.4974 225.104 74.4672 225.15 74.425 225.192Z" stroke="black" stroke-width="2" stroke-miterlimit="10" stroke-linecap="round" stroke-linejoin="round"/>
<path d="M84.1855 203.571C84.55 203.936 84.7044 204.425 84.6529 204.896C84.6529 204.896 84.7044 213.798 79.8504 218.858C79.7947 218.922 79.7346 218.982 79.6746 219.042C77.8394 220.878 74.8678 220.873 73.0369 219.042C71.2059 217.211 71.2017 214.24 73.0369 212.405L81.87 203.572C82.509 202.933 83.5466 202.933 84.1855 203.571Z" stroke="black" stroke-width="2" stroke-miterlimit="10" stroke-linecap="round"/>
<path d="M84.5469 206.829L84.5369 206.819" stroke="black" stroke-width="2" stroke-miterlimit="10" stroke-linecap="round"/>
<path d="M80.4268 211.739C81.2368 211.859 82.4068 211.379 83.4068 210.429C83.7068 210.139 83.9668 209.839 84.1668 209.529" stroke="black" stroke-width="2" stroke-miterlimit="10" stroke-linecap="round"/>
<path d="M83.0669 207.559C83.6469 207.479 84.1769 207.199 84.5569 206.759" stroke="black" stroke-width="2" stroke-miterlimit="10" stroke-linecap="round"/>
<path d="M353.403 143.176L340.676 155.904L360.886 176.114L373.613 163.386L353.403 143.176Z" fill="white"/>
<path d="M332.979 178.778C333.344 179.142 333.832 179.297 334.304 179.245C334.304 179.245 343.206 179.297 348.266 174.443C348.33 174.387 348.39 174.327 348.45 174.267C350.285 172.432 350.281 169.46 348.45 167.629C346.619 165.798 343.647 165.794 341.812 167.629L332.979 176.462C332.34 177.101 332.34 178.139 332.979 178.778Z" fill="white"/>
<path d="M341.147 175.019C341.267 175.829 340.787 176.999 339.837 177.999C339.547 178.299 339.247 178.559 338.937 178.759" fill="white"/>
<path d="M336.967 177.659C336.887 178.239 336.607 178.769 336.167 179.149Z" fill="white"/>
<path d="M355.074 147.797C355.983 146.888 355.983 145.414 355.074 144.505C354.165 143.596 352.691 143.596 351.782 144.505C350.872 145.414 350.872 146.888 351.782 147.797C352.691 148.706 354.165 148.706 355.074 147.797Z" fill="#5C9E31"/>
<path d="M372.722 165.007C373.631 164.098 373.631 162.624 372.722 161.715C371.813 160.806 370.339 160.806 369.43 161.715C368.521 162.624 368.521 164.098 369.43 165.007C370.339 165.917 371.813 165.917 372.722 165.007Z" fill="#5C9E31"/>
<path d="M344.965 157.906C345.874 156.997 345.874 155.523 344.965 154.614C344.055 153.705 342.581 153.705 341.672 154.614C340.763 155.523 340.763 156.997 341.672 157.906C342.581 158.815 344.055 158.815 344.965 157.906Z" fill="#5C9E31"/>
<path d="M362.225 175.167C363.134 174.258 363.134 172.784 362.225 171.874C361.316 170.965 359.842 170.965 358.933 171.874C358.024 172.784 358.024 174.258 358.933 175.167C359.842 176.076 361.316 176.076 362.225 175.167Z" fill="#5C9E31"/>
<path d="M371.805 164.089L372.986 162.908L353.661 143.584L352.481 144.765L371.805 164.089Z" fill="#5C9E31"/>
<path d="M360.06 175.362L361.241 174.182L341.917 154.857L340.736 156.038L360.06 175.362Z" fill="#5C9E31"/>
<path d="M354.866 144.296L353.672 143.101L340.735 156.037L341.93 157.232L354.866 144.296Z" fill="#5C9E31"/>
<path d="M373.699 163.128L372.504 161.933L359.568 174.87L360.762 176.064L373.699 163.128Z" fill="#5C9E31"/>
<path d="M363.661 166.027C365.903 163.785 364.784 159.03 361.161 155.407C357.538 151.785 352.783 150.665 350.541 152.908C348.299 155.15 349.418 159.905 353.041 163.528C356.664 167.15 361.418 168.27 363.661 166.027Z" fill="#5C9E31"/>
<path d="M366.425 157.192L354.692 168.925C354.65 168.967 354.604 168.998 354.553 169.024C354.347 169.124 354.082 169.082 353.903 168.903L347.68 162.68C347.502 162.502 347.459 162.237 347.56 162.03C347.586 161.98 347.616 161.933 347.658 161.891L359.391 150.158C359.433 150.116 359.48 150.086 359.53 150.06C359.736 149.959 360.002 150.002 360.18 150.18L366.403 156.403C366.582 156.581 366.624 156.847 366.524 157.053C366.497 157.104 366.467 157.15 366.425 157.192Z" fill="white"/>
<path d="M376.186 135.571C376.55 135.936 376.704 136.425 376.653 136.896C376.653 136.896 376.704 145.798 371.85 150.858C371.795 150.922 371.735 150.982 371.675 151.042C369.839 152.878 366.868 152.873 365.037 151.042C363.206 149.211 363.202 146.24 365.037 144.405L373.87 135.572C374.509 134.933 375.547 134.933 376.186 135.571Z" fill="white"/>
<path d="M372.427 143.739C373.237 143.859 374.407 143.379 375.407 142.429C375.707 142.139 375.967 141.839 376.167 141.529" fill="white"/>
<path d="M375.067 139.559C375.647 139.479 376.177 139.199 376.557 138.759Z" fill="white"/>
<path d="M332.979 178.778C333.344 179.142 333.832 179.297 334.304 179.245C334.304 179.245 343.206 179.297 348.266 174.443C348.33 174.387 348.39 174.327 348.45 174.267C350.285 172.432 350.281 169.46 348.45 167.629C346.619 165.798 343.647 165.794 341.812 167.629L332.979 176.462C332.34 177.101 332.34 178.139 332.979 178.778Z" stroke="black" stroke-width="2" stroke-miterlimit="10" stroke-linecap="round"/>
<path d="M336.237 179.139L336.227 179.129" stroke="black" stroke-width="2" stroke-miterlimit="10" stroke-linecap="round"/>
<path d="M341.147 175.019C341.267 175.829 340.787 176.999 339.837 177.999C339.547 178.299 339.247 178.559 338.937 178.759" stroke="black" stroke-width="2" stroke-miterlimit="10" stroke-linecap="round"/>
<path d="M336.967 177.659C336.887 178.239 336.607 178.769 336.167 179.149" stroke="black" stroke-width="2" stroke-miterlimit="10" stroke-linecap="round"/>
<path d="M360.055 175.358L341.442 156.745C341.052 156.355 341.052 155.722 341.442 155.331L352.685 144.089C353.075 143.698 353.708 143.698 354.099 144.089L372.712 162.701C373.102 163.092 373.102 163.725 372.712 164.116L361.469 175.358C361.079 175.749 360.445 175.749 360.055 175.358Z" stroke="black" stroke-width="2" stroke-miterlimit="10" stroke-linecap="round" stroke-linejoin="round"/>
<path d="M366.425 157.192L354.692 168.925C354.65 168.967 354.604 168.998 354.553 169.024C354.347 169.124 354.082 169.082 353.903 168.903L347.68 162.68C347.502 162.502 347.459 162.237 347.56 162.03C347.586 161.98 347.616 161.933 347.658 161.891L359.391 150.158C359.433 150.116 359.48 150.086 359.53 150.06C359.736 149.959 360.002 150.002 360.18 150.18L366.403 156.403C366.582 156.581 366.624 156.847 366.524 157.053C366.497 157.104 366.467 157.15 366.425 157.192Z" stroke="black" stroke-width="2" stroke-miterlimit="10" stroke-linecap="round" stroke-linejoin="round"/>
<path d="M376.186 135.571C376.55 135.936 376.704 136.425 376.653 136.896C376.653 136.896 376.704 145.798 371.85 150.858C371.795 150.922 371.735 150.982 371.675 151.042C369.839 152.878 366.868 152.873 365.037 151.042C363.206 149.211 363.202 146.24 365.037 144.405L373.87 135.572C374.509 134.933 375.547 134.933 376.186 135.571Z" stroke="black" stroke-width="2" stroke-miterlimit="10" stroke-linecap="round"/>
<path d="M376.547 138.829L376.537 138.819" stroke="black" stroke-width="2" stroke-miterlimit="10" stroke-linecap="round"/>
<path d="M372.427 143.739C373.237 143.859 374.407 143.379 375.407 142.429C375.707 142.139 375.967 141.839 376.167 141.529" stroke="black" stroke-width="2" stroke-miterlimit="10" stroke-linecap="round"/>
<path d="M375.067 139.559C375.647 139.479 376.177 139.199 376.557 138.759" stroke="black" stroke-width="2" stroke-miterlimit="10" stroke-linecap="round"/>
<path d="M281.403 58.176L268.676 70.9038L288.886 91.1138L301.613 78.386L281.403 58.176Z" fill="white"/>
<path d="M260.979 93.7778C261.344 94.1423 261.832 94.2967 262.304 94.2452C262.304 94.2452 271.206 94.2967 276.266 89.4427C276.33 89.387 276.39 89.327 276.45 89.2669C278.285 87.4317 278.281 84.4601 276.45 82.6292C274.619 80.7982 271.647 80.794 269.812 82.6292L260.979 91.4623C260.34 92.1013 260.34 93.1389 260.979 93.7778Z" fill="white"/>
<path d="M269.147 90.019C269.267 90.829 268.787 91.999 267.837 92.999C267.547 93.299 267.247 93.559 266.937 93.759" fill="white"/>
<path d="M264.967 92.6592C264.887 93.2392 264.607 93.7692 264.167 94.1492Z" fill="white"/>
<path d="M283.074 62.797C283.983 61.8879 283.983 60.4139 283.074 59.5048C282.165 58.5956 280.691 58.5956 279.782 59.5048C278.872 60.4139 278.872 61.8879 279.782 62.797C280.691 63.7061 282.165 63.7061 283.074 62.797Z" fill="#5C9E31"/>
<path d="M300.722 80.0075C301.631 79.0983 301.631 77.6243 300.722 76.7152C299.813 75.8061 298.339 75.8061 297.43 76.7152C296.521 77.6243 296.521 79.0983 297.43 80.0075C298.339 80.9166 299.813 80.9166 300.722 80.0075Z" fill="#5C9E31"/>
<path d="M272.965 72.9059C273.874 71.9968 273.874 70.5228 272.965 69.6136C272.055 68.7045 270.581 68.7045 269.672 69.6136C268.763 70.5228 268.763 71.9968 269.672 72.9059C270.581 73.815 272.055 73.815 272.965 72.9059Z" fill="#5C9E31"/>
<path d="M290.225 90.1666C291.134 89.2575 291.134 87.7835 290.225 86.8744C289.316 85.9652 287.842 85.9652 286.933 86.8744C286.024 87.7835 286.024 89.2575 286.933 90.1666C287.842 91.0758 289.316 91.0758 290.225 90.1666Z" fill="#5C9E31"/>
<path d="M299.805 79.0891L300.986 77.9082L281.661 58.5838L280.481 59.7647L299.805 79.0891Z" fill="#5C9E31"/>
<path d="M288.06 90.3625L289.241 89.1816L269.917 69.8572L268.736 71.0381L288.06 90.3625Z" fill="#5C9E31"/>
<path d="M282.866 59.2957L281.672 58.1011L268.735 71.0375L269.93 72.2321L282.866 59.2957Z" fill="#5C9E31"/>
<path d="M301.699 78.1278L300.504 76.9331L287.568 89.8695L288.762 91.0641L301.699 78.1278Z" fill="#5C9E31"/>
<path d="M291.661 81.0273C293.903 78.785 292.784 74.0303 289.161 70.4075C285.538 66.7846 280.783 65.6655 278.541 67.9077C276.299 70.15 277.418 74.9047 281.041 78.5275C284.664 82.1504 289.418 83.2696 291.661 81.0273Z" fill="#5C9E31"/>
<path d="M294.425 72.1924L282.692 83.9251C282.65 83.9673 282.604 83.9976 282.553 84.0238C282.347 84.1245 282.082 84.0816 281.903 83.9032L275.68 77.6805C275.502 77.502 275.459 77.2366 275.56 77.0304C275.586 76.9799 275.616 76.9334 275.658 76.8912L287.391 65.1584C287.433 65.1162 287.48 65.0859 287.53 65.0597C287.736 64.959 288.002 65.0019 288.18 65.1803L294.403 71.403C294.582 71.5815 294.624 71.8469 294.524 72.0531C294.497 72.1037 294.467 72.1502 294.425 72.1924Z" fill="white"/>
<path d="M304.186 50.5714C304.55 50.9359 304.704 51.4247 304.653 51.8964C304.653 51.8964 304.704 60.7981 299.85 65.8579C299.795 65.9222 299.735 65.9822 299.675 66.0423C297.839 67.8775 294.868 67.8732 293.037 66.0423C291.206 64.2113 291.202 61.2398 293.037 59.4046L301.87 50.5715C302.509 49.9325 303.547 49.9325 304.186 50.5714Z" fill="white"/>
<path d="M300.427 58.7388C301.237 58.8588 302.407 58.3788 303.407 57.4288C303.707 57.1388 303.967 56.8388 304.167 56.5288" fill="white"/>
<path d="M303.067 54.5588C303.647 54.4788 304.177 54.1988 304.557 53.7588Z" fill="white"/>
<path d="M260.979 93.7778C261.344 94.1423 261.832 94.2967 262.304 94.2452C262.304 94.2452 271.206 94.2967 276.266 89.4427C276.33 89.387 276.39 89.327 276.45 89.2669C278.285 87.4317 278.281 84.4601 276.45 82.6292C274.619 80.7982 271.647 80.794 269.812 82.6292L260.979 91.4623C260.34 92.1013 260.34 93.1389 260.979 93.7778Z" stroke="black" stroke-width="2" stroke-miterlimit="10" stroke-linecap="round"/>
<path d="M264.237 94.1389L264.227 94.1289" stroke="black" stroke-width="2" stroke-miterlimit="10" stroke-linecap="round"/>
<path d="M269.147 90.019C269.267 90.829 268.787 91.999 267.837 92.999C267.547 93.299 267.247 93.559 266.937 93.759" stroke="black" stroke-width="2" stroke-miterlimit="10" stroke-linecap="round"/>
<path d="M264.967 92.6592C264.887 93.2392 264.607 93.7692 264.167 94.1492" stroke="black" stroke-width="2" stroke-miterlimit="10" stroke-linecap="round"/>
<path d="M288.055 90.3582L269.442 71.7454C269.052 71.3549 269.052 70.7217 269.442 70.3312L280.685 59.0888C281.075 58.6983 281.708 58.6983 282.099 59.0888L300.712 77.7015C301.102 78.092 301.102 78.7252 300.712 79.1157L289.469 90.3582C289.079 90.7487 288.445 90.7487 288.055 90.3582Z" stroke="black" stroke-width="2" stroke-miterlimit="10" stroke-linecap="round" stroke-linejoin="round"/>
<path d="M294.425 72.1924L282.692 83.9251C282.65 83.9673 282.604 83.9976 282.553 84.0238C282.347 84.1245 282.082 84.0816 281.903 83.9032L275.68 77.6805C275.502 77.502 275.459 77.2366 275.56 77.0304C275.586 76.9799 275.616 76.9334 275.658 76.8912L287.391 65.1584C287.433 65.1162 287.48 65.0859 287.53 65.0597C287.736 64.959 288.002 65.0019 288.18 65.1803L294.403 71.403C294.582 71.5815 294.624 71.8469 294.524 72.0531C294.497 72.1037 294.467 72.1502 294.425 72.1924Z" stroke="black" stroke-width="2" stroke-miterlimit="10" stroke-linecap="round" stroke-linejoin="round"/>
<path d="M304.186 50.5714C304.55 50.9359 304.704 51.4247 304.653 51.8964C304.653 51.8964 304.704 60.7981 299.85 65.8579C299.795 65.9222 299.735 65.9822 299.675 66.0423C297.839 67.8775 294.868 67.8732 293.037 66.0423C291.206 64.2113 291.202 61.2398 293.037 59.4046L301.87 50.5715C302.509 49.9325 303.547 49.9325 304.186 50.5714Z" stroke="black" stroke-width="2" stroke-miterlimit="10" stroke-linecap="round"/>
<path d="M304.547 53.8288L304.537 53.8188" stroke="black" stroke-width="2" stroke-miterlimit="10" stroke-linecap="round"/>
<path d="M300.427 58.7388C301.237 58.8588 302.407 58.3788 303.407 57.4288C303.707 57.1388 303.967 56.8388 304.167 56.5288" stroke="black" stroke-width="2" stroke-miterlimit="10" stroke-linecap="round"/>
<path d="M303.067 54.5588C303.647 54.4788 304.177 54.1988 304.557 53.7588" stroke="black" stroke-width="2" stroke-miterlimit="10" stroke-linecap="round"/>
<path d="M204.403 239.176L191.676 251.904L211.886 272.114L224.613 259.386L204.403 239.176Z" fill="white"/>
<path d="M183.979 274.778C184.344 275.142 184.832 275.297 185.304 275.245C185.304 275.245 194.206 275.297 199.266 270.443C199.33 270.387 199.39 270.327 199.45 270.267C201.285 268.432 201.281 265.46 199.45 263.629C197.619 261.798 194.647 261.794 192.812 263.629L183.979 272.462C183.34 273.101 183.34 274.139 183.979 274.778Z" fill="white"/>
<path d="M192.147 271.019C192.267 271.829 191.787 272.999 190.837 273.999C190.547 274.299 190.247 274.559 189.937 274.759" fill="white"/>
<path d="M187.967 273.659C187.887 274.239 187.607 274.769 187.167 275.149Z" fill="white"/>
<path d="M206.074 243.797C206.983 242.888 206.983 241.414 206.074 240.505C205.165 239.596 203.691 239.596 202.782 240.505C201.872 241.414 201.872 242.888 202.782 243.797C203.691 244.706 205.165 244.706 206.074 243.797Z" fill="#5C9E31"/>
<path d="M223.722 261.007C224.631 260.098 224.631 258.624 223.722 257.715C222.813 256.806 221.339 256.806 220.43 257.715C219.521 258.624 219.521 260.098 220.43 261.007C221.339 261.917 222.813 261.917 223.722 261.007Z" fill="#5C9E31"/>
<path d="M195.965 253.906C196.874 252.997 196.874 251.523 195.965 250.614C195.055 249.705 193.581 249.705 192.672 250.614C191.763 251.523 191.763 252.997 192.672 253.906C193.581 254.815 195.055 254.815 195.965 253.906Z" fill="#5C9E31"/>
<path d="M213.225 271.167C214.134 270.258 214.134 268.784 213.225 267.874C212.316 266.965 210.842 266.965 209.933 267.874C209.024 268.784 209.024 270.258 209.933 271.167C210.842 272.076 212.316 272.076 213.225 271.167Z" fill="#5C9E31"/>
<path d="M222.805 260.089L223.986 258.908L204.661 239.584L203.481 240.765L222.805 260.089Z" fill="#5C9E31"/>
<path d="M211.06 271.362L212.241 270.182L192.917 250.857L191.736 252.038L211.06 271.362Z" fill="#5C9E31"/>
<path d="M205.866 240.296L204.672 239.101L191.735 252.037L192.93 253.232L205.866 240.296Z" fill="#5C9E31"/>
<path d="M224.699 259.128L223.504 257.933L210.568 270.87L211.762 272.064L224.699 259.128Z" fill="#5C9E31"/>
<path d="M214.661 262.027C216.903 259.785 215.784 255.03 212.161 251.407C208.538 247.785 203.783 246.665 201.541 248.908C199.299 251.15 200.418 255.905 204.041 259.528C207.664 263.15 212.418 264.27 214.661 262.027Z" fill="#5C9E31"/>
<path d="M217.425 253.192L205.692 264.925C205.65 264.967 205.604 264.998 205.553 265.024C205.347 265.124 205.082 265.082 204.903 264.903L198.68 258.68C198.502 258.502 198.459 258.237 198.56 258.03C198.586 257.98 198.616 257.933 198.658 257.891L210.391 246.158C210.433 246.116 210.48 246.086 210.53 246.06C210.736 245.959 211.002 246.002 211.18 246.18L217.403 252.403C217.582 252.581 217.624 252.847 217.524 253.053C217.497 253.104 217.467 253.15 217.425 253.192Z" fill="white"/>
<path d="M227.186 231.571C227.55 231.936 227.704 232.425 227.653 232.896C227.653 232.896 227.704 241.798 222.85 246.858C222.795 246.922 222.735 246.982 222.675 247.042C220.839 248.878 217.868 248.873 216.037 247.042C214.206 245.211 214.202 242.24 216.037 240.405L224.87 231.572C225.509 230.933 226.547 230.933 227.186 231.571Z" fill="white"/>
<path d="M223.427 239.739C224.237 239.859 225.407 239.379 226.407 238.429C226.707 238.139 226.967 237.839 227.167 237.529" fill="white"/>
<path d="M226.067 235.559C226.647 235.479 227.177 235.199 227.557 234.759Z" fill="white"/>
<path d="M183.979 274.778C184.344 275.142 184.832 275.297 185.304 275.245C185.304 275.245 194.206 275.297 199.266 270.443C199.33 270.387 199.39 270.327 199.45 270.267C201.285 268.432 201.281 265.46 199.45 263.629C197.619 261.798 194.647 261.794 192.812 263.629L183.979 272.462C183.34 273.101 183.34 274.139 183.979 274.778Z" stroke="black" stroke-width="2" stroke-miterlimit="10" stroke-linecap="round"/>
<path d="M187.237 275.139L187.227 275.129" stroke="black" stroke-width="2" stroke-miterlimit="10" stroke-linecap="round"/>
<path d="M192.147 271.019C192.267 271.829 191.787 272.999 190.837 273.999C190.547 274.299 190.247 274.559 189.937 274.759" stroke="black" stroke-width="2" stroke-miterlimit="10" stroke-linecap="round"/>
<path d="M187.967 273.659C187.887 274.239 187.607 274.769 187.167 275.149" stroke="black" stroke-width="2" stroke-miterlimit="10" stroke-linecap="round"/>
<path d="M211.055 271.358L192.442 252.745C192.052 252.355 192.052 251.722 192.442 251.331L203.685 240.089C204.075 239.698 204.708 239.698 205.099 240.089L223.712 258.701C224.102 259.092 224.102 259.725 223.712 260.116L212.469 271.358C212.079 271.749 211.445 271.749 211.055 271.358Z" stroke="black" stroke-width="2" stroke-miterlimit="10" stroke-linecap="round" stroke-linejoin="round"/>
<path d="M217.425 253.192L205.692 264.925C205.65 264.967 205.604 264.998 205.553 265.024C205.347 265.124 205.082 265.082 204.903 264.903L198.68 258.68C198.502 258.502 198.459 258.237 198.56 258.03C198.586 257.98 198.616 257.933 198.658 257.891L210.391 246.158C210.433 246.116 210.48 246.086 210.53 246.06C210.736 245.959 211.002 246.002 211.18 246.18L217.403 252.403C217.582 252.581 217.624 252.847 217.524 253.053C217.497 253.104 217.467 253.15 217.425 253.192Z" stroke="black" stroke-width="2" stroke-miterlimit="10" stroke-linecap="round" stroke-linejoin="round"/>
<path d="M227.186 231.571C227.55 231.936 227.704 232.425 227.653 232.896C227.653 232.896 227.704 241.798 222.85 246.858C222.795 246.922 222.735 246.982 222.675 247.042C220.839 248.878 217.868 248.873 216.037 247.042C214.206 245.211 214.202 242.24 216.037 240.405L224.87 231.572C225.509 230.933 226.547 230.933 227.186 231.571Z" stroke="black" stroke-width="2" stroke-miterlimit="10" stroke-linecap="round"/>
<path d="M227.547 234.829L227.537 234.819" stroke="black" stroke-width="2" stroke-miterlimit="10" stroke-linecap="round"/>
<path d="M223.427 239.739C224.237 239.859 225.407 239.379 226.407 238.429C226.707 238.139 226.967 237.839 227.167 237.529" stroke="black" stroke-width="2" stroke-miterlimit="10" stroke-linecap="round"/>
<path d="M226.067 235.559C226.647 235.479 227.177 235.199 227.557 234.759" stroke="black" stroke-width="2" stroke-miterlimit="10" stroke-linecap="round"/>
<path d="M82.4033 303.176L69.6755 315.904L89.8855 336.114L102.613 323.386L82.4033 303.176Z" fill="white"/>
<path d="M61.9792 338.778C62.3437 339.142 62.8325 339.297 63.3042 339.245C63.3042 339.245 72.2059 339.297 77.2657 334.443C77.33 334.387 77.39 334.327 77.45 334.267C79.2852 332.432 79.2809 329.46 77.45 327.629C75.619 325.798 72.6475 325.794 70.8123 327.629L61.9792 336.462C61.3403 337.101 61.3403 338.139 61.9792 338.778Z" fill="white"/>
<path d="M70.1465 335.019C70.2665 335.829 69.7865 336.999 68.8365 337.999C68.5465 338.299 68.2465 338.559 67.9365 338.759" fill="white"/>
<path d="M65.9665 337.659C65.8865 338.239 65.6065 338.769 65.1665 339.149Z" fill="white"/>
<path d="M84.0739 307.797C84.983 306.888 84.983 305.414 84.0739 304.505C83.1648 303.596 81.6908 303.596 80.7816 304.505C79.8725 305.414 79.8725 306.888 80.7816 307.797C81.6908 308.706 83.1648 308.706 84.0739 307.797Z" fill="#5C9E31"/>
<path d="M101.722 325.007C102.631 324.098 102.631 322.624 101.722 321.715C100.813 320.806 99.339 320.806 98.4298 321.715C97.5207 322.624 97.5207 324.098 98.4298 325.007C99.339 325.917 100.813 325.917 101.722 325.007Z" fill="#5C9E31"/>
<path d="M73.9645 317.906C74.8736 316.997 74.8736 315.523 73.9645 314.614C73.0554 313.705 71.5814 313.705 70.6723 314.614C69.7631 315.523 69.7631 316.997 70.6723 317.906C71.5814 318.815 73.0554 318.815 73.9645 317.906Z" fill="#5C9E31"/>
<path d="M91.225 335.167C92.1341 334.258 92.1341 332.784 91.225 331.874C90.3159 330.965 88.8419 330.965 87.9328 331.874C87.0236 332.784 87.0236 334.258 87.9327 335.167C88.8419 336.076 90.3159 336.076 91.225 335.167Z" fill="#5C9E31"/>
<path d="M100.805 324.089L101.986 322.908L82.6614 303.584L81.4806 304.765L100.805 324.089Z" fill="#5C9E31"/>
<path d="M89.0601 335.362L90.241 334.182L70.9166 314.857L69.7357 316.038L89.0601 335.362Z" fill="#5C9E31"/>
<path d="M83.8663 304.296L82.6716 303.101L69.7352 316.037L70.9299 317.232L83.8663 304.296Z" fill="#5C9E31"/>
<path d="M102.699 323.128L101.504 321.933L88.5675 334.87L89.7622 336.064L102.699 323.128Z" fill="#5C9E31"/>
<path d="M92.6605 326.027C94.9028 323.785 93.7836 319.03 90.1608 315.407C86.5379 311.785 81.7833 310.665 79.541 312.908C77.2987 315.15 78.4179 319.905 82.0407 323.528C85.6636 327.15 90.4182 328.27 92.6605 326.027Z" fill="#5C9E31"/>
<path d="M95.425 317.192L83.6923 328.925C83.6501 328.967 83.6037 328.998 83.5531 329.024C83.3469 329.124 83.0815 329.082 82.903 328.903L76.6803 322.68C76.5018 322.502 76.4589 322.237 76.5597 322.03C76.5859 321.98 76.6162 321.933 76.6584 321.891L88.391 310.158C88.4332 310.116 88.4797 310.086 88.5302 310.06C88.7364 309.959 89.0018 310.002 89.1803 310.18L95.403 316.403C95.5815 316.581 95.6244 316.847 95.5236 317.053C95.4974 317.104 95.4672 317.15 95.425 317.192Z" fill="white"/>
<path d="M105.186 295.571C105.55 295.936 105.704 296.425 105.653 296.896C105.653 296.896 105.704 305.798 100.85 310.858C100.795 310.922 100.735 310.982 100.675 311.042C98.8394 312.878 95.8678 312.873 94.0369 311.042C92.2059 309.211 92.2017 306.24 94.0369 304.405L102.87 295.572C103.509 294.933 104.547 294.933 105.186 295.571Z" fill="white"/>
<path d="M101.427 303.739C102.237 303.859 103.407 303.379 104.407 302.429C104.707 302.139 104.967 301.839 105.167 301.529" fill="white"/>
<path d="M104.067 299.559C104.647 299.479 105.177 299.199 105.557 298.759Z" fill="white"/>
<path d="M61.9792 338.778C62.3437 339.142 62.8325 339.297 63.3042 339.245C63.3042 339.245 72.2059 339.297 77.2657 334.443C77.33 334.387 77.39 334.327 77.45 334.267C79.2852 332.432 79.2809 329.46 77.45 327.629C75.619 325.798 72.6475 325.794 70.8123 327.629L61.9792 336.462C61.3403 337.101 61.3403 338.139 61.9792 338.778Z" stroke="black" stroke-width="2" stroke-miterlimit="10" stroke-linecap="round"/>
<path d="M65.2366 339.139L65.2266 339.129" stroke="black" stroke-width="2" stroke-miterlimit="10" stroke-linecap="round"/>
<path d="M70.1465 335.019C70.2665 335.829 69.7865 336.999 68.8365 337.999C68.5465 338.299 68.2465 338.559 67.9365 338.759" stroke="black" stroke-width="2" stroke-miterlimit="10" stroke-linecap="round"/>
<path d="M65.9665 337.659C65.8865 338.239 65.6065 338.769 65.1665 339.149" stroke="black" stroke-width="2" stroke-miterlimit="10" stroke-linecap="round"/>
<path d="M89.055 335.358L70.4423 316.745C70.0518 316.355 70.0518 315.722 70.4423 315.331L81.6847 304.089C82.0752 303.698 82.7084 303.698 83.0989 304.089L101.712 322.701C102.102 323.092 102.102 323.725 101.712 324.116L90.4692 335.358C90.0787 335.749 89.4455 335.749 89.055 335.358Z" stroke="black" stroke-width="2" stroke-miterlimit="10" stroke-linecap="round" stroke-linejoin="round"/>
<path d="M95.425 317.192L83.6923 328.925C83.6501 328.967 83.6037 328.998 83.5531 329.024C83.3469 329.124 83.0815 329.082 82.903 328.903L76.6803 322.68C76.5018 322.502 76.4589 322.237 76.5597 322.03C76.5859 321.98 76.6162 321.933 76.6584 321.891L88.391 310.158C88.4332 310.116 88.4797 310.086 88.5302 310.06C88.7364 309.959 89.0018 310.002 89.1803 310.18L95.403 316.403C95.5815 316.581 95.6244 316.847 95.5236 317.053C95.4974 317.104 95.4672 317.15 95.425 317.192Z" stroke="black" stroke-width="2" stroke-miterlimit="10" stroke-linecap="round" stroke-linejoin="round"/>
<path d="M105.186 295.571C105.55 295.936 105.704 296.425 105.653 296.896C105.653 296.896 105.704 305.798 100.85 310.858C100.795 310.922 100.735 310.982 100.675 311.042C98.8394 312.878 95.8678 312.873 94.0369 311.042C92.2059 309.211 92.2017 306.24 94.0369 304.405L102.87 295.572C103.509 294.933 104.547 294.933 105.186 295.571Z" stroke="black" stroke-width="2" stroke-miterlimit="10" stroke-linecap="round"/>
<path d="M105.547 298.829L105.537 298.819" stroke="black" stroke-width="2" stroke-miterlimit="10" stroke-linecap="round"/>
<path d="M101.427 303.739C102.237 303.859 103.407 303.379 104.407 302.429C104.707 302.139 104.967 301.839 105.167 301.529" stroke="black" stroke-width="2" stroke-miterlimit="10" stroke-linecap="round"/>
<path d="M104.067 299.559C104.647 299.479 105.177 299.199 105.557 298.759" stroke="black" stroke-width="2" stroke-miterlimit="10" stroke-linecap="round"/>
</svg>
